<mxfile host="Electron" agent="Mozilla/5.0 (Macintosh; Intel Mac OS X 10_15_7) AppleWebKit/537.36 (KHTML, like Gecko) draw.io/24.7.8 Chrome/128.0.6613.36 Electron/32.0.1 Safari/537.36" version="24.7.8" pages="4">
  <diagram name="ext-shared-stg" id="HRoRe1zzGzBoQn-4XEZ7">
    <mxGraphModel dx="1314" dy="861" grid="1" gridSize="10" guides="1" tooltips="1" connect="1" arrows="1" fold="1" page="1" pageScale="1" pageWidth="850" pageHeight="1100" math="0" shadow="0">
      <root>
        <mxCell id="0" />
        <mxCell id="1" parent="0" />
        <mxCell id="nk2X0FEJClPMyaTlSRbJ-1" value="&lt;code class=&quot;code&quot;&gt;public:npmjs&lt;/code&gt;" style="rounded=1;whiteSpace=wrap;html=1;" parent="1" vertex="1">
          <mxGeometry x="880" y="210" width="160" height="40" as="geometry" />
        </mxCell>
        <mxCell id="nk2X0FEJClPMyaTlSRbJ-2" value="&lt;code class=&quot;code&quot;&gt;public:pypi&lt;/code&gt;" style="rounded=1;whiteSpace=wrap;html=1;" parent="1" vertex="1">
          <mxGeometry x="880" y="260" width="160" height="40" as="geometry" />
        </mxCell>
        <mxCell id="nk2X0FEJClPMyaTlSRbJ-3" value="&lt;code class=&quot;code&quot;&gt;public:maven-central&lt;/code&gt;" style="rounded=1;whiteSpace=wrap;html=1;" parent="1" vertex="1">
          <mxGeometry x="880" y="310" width="160" height="40" as="geometry" />
        </mxCell>
        <mxCell id="nk2X0FEJClPMyaTlSRbJ-4" value="&lt;code class=&quot;code&quot;&gt;public:maven-googleandroid&lt;/code&gt;" style="rounded=1;whiteSpace=wrap;html=1;" parent="1" vertex="1">
          <mxGeometry x="880" y="360" width="160" height="40" as="geometry" />
        </mxCell>
        <mxCell id="nk2X0FEJClPMyaTlSRbJ-5" value="&lt;code class=&quot;code&quot;&gt;public:maven-gradleplugins&lt;/code&gt;" style="rounded=1;whiteSpace=wrap;html=1;" parent="1" vertex="1">
          <mxGeometry x="880" y="410" width="160" height="40" as="geometry" />
        </mxCell>
        <mxCell id="nk2X0FEJClPMyaTlSRbJ-6" value="&lt;code class=&quot;code&quot;&gt;public:maven-commonsware&lt;/code&gt;" style="rounded=1;whiteSpace=wrap;html=1;" parent="1" vertex="1">
          <mxGeometry x="880" y="460" width="160" height="40" as="geometry" />
        </mxCell>
        <mxCell id="nk2X0FEJClPMyaTlSRbJ-7" value="&lt;code class=&quot;code&quot;&gt;public:maven-clojars&lt;/code&gt;" style="rounded=1;whiteSpace=wrap;html=1;" parent="1" vertex="1">
          <mxGeometry x="880" y="510" width="160" height="40" as="geometry" />
        </mxCell>
        <mxCell id="nk2X0FEJClPMyaTlSRbJ-8" value="&lt;code class=&quot;code&quot;&gt;public:nuget-org&lt;/code&gt;" style="rounded=1;whiteSpace=wrap;html=1;" parent="1" vertex="1">
          <mxGeometry x="880" y="560" width="160" height="40" as="geometry" />
        </mxCell>
        <mxCell id="nk2X0FEJClPMyaTlSRbJ-18" value="" style="strokeWidth=2;html=1;shape=mxgraph.flowchart.annotation_1;align=left;pointerEvents=1;rotation=90;" parent="1" vertex="1">
          <mxGeometry x="945.63" y="-41.87" width="15" height="178.75" as="geometry" />
        </mxCell>
        <mxCell id="nk2X0FEJClPMyaTlSRbJ-19" value="External repositores" style="text;html=1;align=center;verticalAlign=middle;resizable=0;points=[];autosize=1;strokeColor=none;fillColor=none;" parent="1" vertex="1">
          <mxGeometry x="888.13" y="8" width="130" height="30" as="geometry" />
        </mxCell>
        <mxCell id="nk2X0FEJClPMyaTlSRbJ-20" value="" style="strokeWidth=2;html=1;shape=mxgraph.flowchart.annotation_1;align=left;pointerEvents=1;rotation=90;" parent="1" vertex="1">
          <mxGeometry x="450.78999999999996" y="-266.71" width="15" height="628.43" as="geometry" />
        </mxCell>
        <mxCell id="nk2X0FEJClPMyaTlSRbJ-21" value="AWS CodeArtifact repositores" style="text;html=1;align=center;verticalAlign=middle;resizable=0;points=[];autosize=1;strokeColor=none;fillColor=none;" parent="1" vertex="1">
          <mxGeometry x="340" y="8" width="180" height="30" as="geometry" />
        </mxCell>
        <mxCell id="nk2X0FEJClPMyaTlSRbJ-22" value="Central account (AWS Account)" style="points=[[0,0],[0.25,0],[0.5,0],[0.75,0],[1,0],[1,0.25],[1,0.5],[1,0.75],[1,1],[0.75,1],[0.5,1],[0.25,1],[0,1],[0,0.75],[0,0.5],[0,0.25]];outlineConnect=0;gradientColor=none;html=1;whiteSpace=wrap;fontSize=12;fontStyle=0;container=1;pointerEvents=0;collapsible=0;recursiveResize=0;shape=mxgraph.aws4.group;grIcon=mxgraph.aws4.group_account;strokeColor=#CD2264;fillColor=none;verticalAlign=top;align=left;spacingLeft=30;fontColor=#CD2264;dashed=0;" parent="1" vertex="1">
          <mxGeometry x="400" y="80" width="360" height="540" as="geometry" />
        </mxCell>
        <mxCell id="nk2X0FEJClPMyaTlSRbJ-9" value="&lt;code class=&quot;code&quot;&gt;external-npmjs&lt;/code&gt;" style="rounded=1;whiteSpace=wrap;html=1;" parent="nk2X0FEJClPMyaTlSRbJ-22" vertex="1">
          <mxGeometry x="175.5" y="130" width="160" height="40" as="geometry" />
        </mxCell>
        <mxCell id="nk2X0FEJClPMyaTlSRbJ-24" value="my-company&lt;div&gt;(CodeArtifact Domain)&lt;/div&gt;" style="sketch=0;points=[[0,0,0],[0.25,0,0],[0.5,0,0],[0.75,0,0],[1,0,0],[0,1,0],[0.25,1,0],[0.5,1,0],[0.75,1,0],[1,1,0],[0,0.25,0],[0,0.5,0],[0,0.75,0],[1,0.25,0],[1,0.5,0],[1,0.75,0]];outlineConnect=0;fontColor=#232F3E;gradientColor=#4D72F3;gradientDirection=north;fillColor=#3334B9;strokeColor=#ffffff;dashed=0;verticalLabelPosition=bottom;verticalAlign=top;align=center;html=1;fontSize=12;fontStyle=0;aspect=fixed;shape=mxgraph.aws4.resourceIcon;resIcon=mxgraph.aws4.codeartifact;" parent="nk2X0FEJClPMyaTlSRbJ-22" vertex="1">
          <mxGeometry x="240" y="40" width="39" height="39" as="geometry" />
        </mxCell>
        <mxCell id="nk2X0FEJClPMyaTlSRbJ-11" value="&lt;code class=&quot;code&quot;&gt;external-maven-central&lt;/code&gt;" style="rounded=1;whiteSpace=wrap;html=1;" parent="nk2X0FEJClPMyaTlSRbJ-22" vertex="1">
          <mxGeometry x="173" y="230" width="160.5" height="40" as="geometry" />
        </mxCell>
        <mxCell id="nk2X0FEJClPMyaTlSRbJ-12" value="&lt;code class=&quot;code&quot;&gt;external-maven-googleandroid&lt;/code&gt;" style="rounded=1;whiteSpace=wrap;html=1;" parent="nk2X0FEJClPMyaTlSRbJ-22" vertex="1">
          <mxGeometry x="173" y="280" width="160.5" height="40" as="geometry" />
        </mxCell>
        <mxCell id="nk2X0FEJClPMyaTlSRbJ-10" value="&lt;code class=&quot;code&quot;&gt;external-pypi&lt;/code&gt;" style="rounded=1;whiteSpace=wrap;html=1;" parent="nk2X0FEJClPMyaTlSRbJ-22" vertex="1">
          <mxGeometry x="173" y="180" width="160" height="40" as="geometry" />
        </mxCell>
        <mxCell id="nk2X0FEJClPMyaTlSRbJ-13" value="&lt;code class=&quot;code&quot;&gt;external-maven-gradleplugins&lt;/code&gt;" style="rounded=1;whiteSpace=wrap;html=1;" parent="nk2X0FEJClPMyaTlSRbJ-22" vertex="1">
          <mxGeometry x="173" y="330" width="161" height="40" as="geometry" />
        </mxCell>
        <mxCell id="nk2X0FEJClPMyaTlSRbJ-14" value="&lt;code class=&quot;code&quot;&gt;external-maven-commonsware&lt;/code&gt;" style="rounded=1;whiteSpace=wrap;html=1;" parent="nk2X0FEJClPMyaTlSRbJ-22" vertex="1">
          <mxGeometry x="174" y="380" width="160" height="40" as="geometry" />
        </mxCell>
        <mxCell id="nk2X0FEJClPMyaTlSRbJ-15" value="&lt;code class=&quot;code&quot;&gt;external-maven-clojars&lt;/code&gt;" style="rounded=1;whiteSpace=wrap;html=1;" parent="nk2X0FEJClPMyaTlSRbJ-22" vertex="1">
          <mxGeometry x="174" y="430" width="161" height="40" as="geometry" />
        </mxCell>
        <mxCell id="nk2X0FEJClPMyaTlSRbJ-16" value="&lt;code class=&quot;code&quot;&gt;external-nuget-org&lt;/code&gt;" style="rounded=1;whiteSpace=wrap;html=1;" parent="nk2X0FEJClPMyaTlSRbJ-22" vertex="1">
          <mxGeometry x="174" y="480" width="161" height="40" as="geometry" />
        </mxCell>
        <mxCell id="nk2X0FEJClPMyaTlSRbJ-44" value="&lt;code class=&quot;code&quot;&gt;internal-shared&lt;/code&gt;" style="rounded=1;whiteSpace=wrap;html=1;" parent="nk2X0FEJClPMyaTlSRbJ-22" vertex="1">
          <mxGeometry x="23" y="280" width="100" height="40" as="geometry" />
        </mxCell>
        <mxCell id="nk2X0FEJClPMyaTlSRbJ-28" value="" style="endArrow=classic;html=1;rounded=0;entryX=0;entryY=0.5;entryDx=0;entryDy=0;exitX=1;exitY=0.5;exitDx=0;exitDy=0;fillColor=#ffe6cc;strokeColor=#d79b00;" parent="nk2X0FEJClPMyaTlSRbJ-22" source="nk2X0FEJClPMyaTlSRbJ-44" target="nk2X0FEJClPMyaTlSRbJ-9" edge="1">
          <mxGeometry width="50" height="50" relative="1" as="geometry">
            <mxPoint x="-107" y="200" as="sourcePoint" />
            <mxPoint x="-57" y="150" as="targetPoint" />
          </mxGeometry>
        </mxCell>
        <mxCell id="nk2X0FEJClPMyaTlSRbJ-55" value="Upstream" style="edgeLabel;html=1;align=center;verticalAlign=middle;resizable=0;points=[];" parent="nk2X0FEJClPMyaTlSRbJ-28" vertex="1" connectable="0">
          <mxGeometry x="0.0155" relative="1" as="geometry">
            <mxPoint x="-27" y="16" as="offset" />
          </mxGeometry>
        </mxCell>
        <mxCell id="nk2X0FEJClPMyaTlSRbJ-45" value="" style="endArrow=classic;html=1;rounded=0;entryX=0;entryY=0.5;entryDx=0;entryDy=0;exitX=1;exitY=0.5;exitDx=0;exitDy=0;fillColor=#ffe6cc;strokeColor=#d79b00;" parent="nk2X0FEJClPMyaTlSRbJ-22" source="nk2X0FEJClPMyaTlSRbJ-44" target="nk2X0FEJClPMyaTlSRbJ-10" edge="1">
          <mxGeometry width="50" height="50" relative="1" as="geometry">
            <mxPoint x="13" y="150" as="sourcePoint" />
            <mxPoint x="-47" y="280" as="targetPoint" />
          </mxGeometry>
        </mxCell>
        <mxCell id="nk2X0FEJClPMyaTlSRbJ-46" value="" style="endArrow=classic;html=1;rounded=0;entryX=0;entryY=0.5;entryDx=0;entryDy=0;exitX=1;exitY=0.5;exitDx=0;exitDy=0;fillColor=#ffe6cc;strokeColor=#d79b00;" parent="nk2X0FEJClPMyaTlSRbJ-22" source="nk2X0FEJClPMyaTlSRbJ-44" target="nk2X0FEJClPMyaTlSRbJ-11" edge="1">
          <mxGeometry width="50" height="50" relative="1" as="geometry">
            <mxPoint x="-87" y="270" as="sourcePoint" />
            <mxPoint x="-37" y="220" as="targetPoint" />
          </mxGeometry>
        </mxCell>
        <mxCell id="nk2X0FEJClPMyaTlSRbJ-47" value="" style="endArrow=classic;html=1;rounded=0;entryX=0;entryY=0.5;entryDx=0;entryDy=0;exitX=1;exitY=0.5;exitDx=0;exitDy=0;fillColor=#ffe6cc;strokeColor=#d79b00;" parent="nk2X0FEJClPMyaTlSRbJ-22" source="nk2X0FEJClPMyaTlSRbJ-44" target="nk2X0FEJClPMyaTlSRbJ-12" edge="1">
          <mxGeometry width="50" height="50" relative="1" as="geometry">
            <mxPoint x="-127" y="330" as="sourcePoint" />
            <mxPoint x="-77" y="280" as="targetPoint" />
          </mxGeometry>
        </mxCell>
        <mxCell id="nk2X0FEJClPMyaTlSRbJ-48" value="" style="endArrow=classic;html=1;rounded=0;entryX=0;entryY=0.5;entryDx=0;entryDy=0;exitX=1;exitY=0.5;exitDx=0;exitDy=0;fillColor=#ffe6cc;strokeColor=#d79b00;" parent="nk2X0FEJClPMyaTlSRbJ-22" source="nk2X0FEJClPMyaTlSRbJ-44" target="nk2X0FEJClPMyaTlSRbJ-13" edge="1">
          <mxGeometry width="50" height="50" relative="1" as="geometry">
            <mxPoint x="3" y="150" as="sourcePoint" />
            <mxPoint x="13" y="350" as="targetPoint" />
          </mxGeometry>
        </mxCell>
        <mxCell id="nk2X0FEJClPMyaTlSRbJ-49" value="" style="endArrow=classic;html=1;rounded=0;entryX=0;entryY=0.5;entryDx=0;entryDy=0;exitX=1;exitY=0.5;exitDx=0;exitDy=0;fillColor=#ffe6cc;strokeColor=#d79b00;" parent="nk2X0FEJClPMyaTlSRbJ-22" source="nk2X0FEJClPMyaTlSRbJ-44" target="nk2X0FEJClPMyaTlSRbJ-14" edge="1">
          <mxGeometry width="50" height="50" relative="1" as="geometry">
            <mxPoint x="43" y="420" as="sourcePoint" />
            <mxPoint x="93" y="370" as="targetPoint" />
          </mxGeometry>
        </mxCell>
        <mxCell id="nk2X0FEJClPMyaTlSRbJ-50" value="" style="endArrow=classic;html=1;rounded=0;entryX=0;entryY=0.5;entryDx=0;entryDy=0;exitX=1;exitY=0.5;exitDx=0;exitDy=0;fillColor=#ffe6cc;strokeColor=#d79b00;" parent="nk2X0FEJClPMyaTlSRbJ-22" source="nk2X0FEJClPMyaTlSRbJ-44" target="nk2X0FEJClPMyaTlSRbJ-15" edge="1">
          <mxGeometry width="50" height="50" relative="1" as="geometry">
            <mxPoint x="-137" y="310" as="sourcePoint" />
            <mxPoint x="-87" y="260" as="targetPoint" />
          </mxGeometry>
        </mxCell>
        <mxCell id="nk2X0FEJClPMyaTlSRbJ-51" value="" style="endArrow=classic;html=1;rounded=0;entryX=0;entryY=0.5;entryDx=0;entryDy=0;exitX=1;exitY=0.5;exitDx=0;exitDy=0;fillColor=#ffe6cc;strokeColor=#d79b00;" parent="nk2X0FEJClPMyaTlSRbJ-22" source="nk2X0FEJClPMyaTlSRbJ-44" target="nk2X0FEJClPMyaTlSRbJ-16" edge="1">
          <mxGeometry width="50" height="50" relative="1" as="geometry">
            <mxPoint x="-287" y="300" as="sourcePoint" />
            <mxPoint x="-237" y="250" as="targetPoint" />
          </mxGeometry>
        </mxCell>
        <mxCell id="nk2X0FEJClPMyaTlSRbJ-63" value="" style="curved=1;endArrow=classic;html=1;rounded=0;exitX=0;exitY=1;exitDx=0;exitDy=0;entryX=0.5;entryY=1;entryDx=0;entryDy=0;dashed=1;" parent="nk2X0FEJClPMyaTlSRbJ-22" source="nk2X0FEJClPMyaTlSRbJ-16" target="nk2X0FEJClPMyaTlSRbJ-44" edge="1">
          <mxGeometry width="50" height="50" relative="1" as="geometry">
            <mxPoint x="493" y="530" as="sourcePoint" />
            <mxPoint x="333" y="530" as="targetPoint" />
            <Array as="points">
              <mxPoint x="73" y="490" />
            </Array>
          </mxGeometry>
        </mxCell>
        <mxCell id="nk2X0FEJClPMyaTlSRbJ-64" value="Packages" style="edgeLabel;html=1;align=center;verticalAlign=middle;resizable=0;points=[];" parent="nk2X0FEJClPMyaTlSRbJ-63" vertex="1" connectable="0">
          <mxGeometry x="-0.2462" y="-25" relative="1" as="geometry">
            <mxPoint x="-1" as="offset" />
          </mxGeometry>
        </mxCell>
        <mxCell id="nk2X0FEJClPMyaTlSRbJ-23" value="Development (AWS Account)" style="points=[[0,0],[0.25,0],[0.5,0],[0.75,0],[1,0],[1,0.25],[1,0.5],[1,0.75],[1,1],[0.75,1],[0.5,1],[0.25,1],[0,1],[0,0.75],[0,0.5],[0,0.25]];outlineConnect=0;gradientColor=none;html=1;whiteSpace=wrap;fontSize=12;fontStyle=0;container=1;pointerEvents=0;collapsible=0;recursiveResize=0;shape=mxgraph.aws4.group;grIcon=mxgraph.aws4.group_account;strokeColor=#CD2264;fillColor=none;verticalAlign=top;align=left;spacingLeft=30;fontColor=#CD2264;dashed=0;" parent="1" vertex="1">
          <mxGeometry x="160" y="80" width="150" height="540" as="geometry" />
        </mxCell>
        <mxCell id="nk2X0FEJClPMyaTlSRbJ-53" value="&lt;font face=&quot;monospace&quot;&gt;account-a-default (repo)&lt;/font&gt;" style="rounded=1;whiteSpace=wrap;html=1;" parent="nk2X0FEJClPMyaTlSRbJ-23" vertex="1">
          <mxGeometry x="30" y="280" width="100" height="40" as="geometry" />
        </mxCell>
        <mxCell id="nk2X0FEJClPMyaTlSRbJ-26" value="" style="endArrow=classic;html=1;rounded=0;exitX=1;exitY=0.5;exitDx=0;exitDy=0;entryX=0;entryY=0.5;entryDx=0;entryDy=0;fillColor=#ffe6cc;strokeColor=#d79b00;" parent="1" source="nk2X0FEJClPMyaTlSRbJ-9" target="nk2X0FEJClPMyaTlSRbJ-1" edge="1">
          <mxGeometry width="50" height="50" relative="1" as="geometry">
            <mxPoint x="730" y="230" as="sourcePoint" />
            <mxPoint x="780" y="180" as="targetPoint" />
          </mxGeometry>
        </mxCell>
        <mxCell id="nk2X0FEJClPMyaTlSRbJ-27" value="External Connection" style="edgeLabel;html=1;align=center;verticalAlign=middle;resizable=0;points=[];" parent="nk2X0FEJClPMyaTlSRbJ-26" vertex="1" connectable="0">
          <mxGeometry x="-0.0253" relative="1" as="geometry">
            <mxPoint x="14" y="-10" as="offset" />
          </mxGeometry>
        </mxCell>
        <mxCell id="nk2X0FEJClPMyaTlSRbJ-29" value="" style="endArrow=classic;html=1;rounded=0;exitX=1;exitY=0.5;exitDx=0;exitDy=0;entryX=0;entryY=0.5;entryDx=0;entryDy=0;fillColor=#ffe6cc;strokeColor=#d79b00;" parent="1" source="nk2X0FEJClPMyaTlSRbJ-10" target="nk2X0FEJClPMyaTlSRbJ-2" edge="1">
          <mxGeometry width="50" height="50" relative="1" as="geometry">
            <mxPoint x="728" y="240" as="sourcePoint" />
            <mxPoint x="890" y="240" as="targetPoint" />
          </mxGeometry>
        </mxCell>
        <mxCell id="nk2X0FEJClPMyaTlSRbJ-30" value="External Connection" style="edgeLabel;html=1;align=center;verticalAlign=middle;resizable=0;points=[];" parent="nk2X0FEJClPMyaTlSRbJ-29" vertex="1" connectable="0">
          <mxGeometry x="-0.0253" relative="1" as="geometry">
            <mxPoint x="14" y="-10" as="offset" />
          </mxGeometry>
        </mxCell>
        <mxCell id="nk2X0FEJClPMyaTlSRbJ-31" value="" style="endArrow=classic;html=1;rounded=0;exitX=1;exitY=0.5;exitDx=0;exitDy=0;entryX=0;entryY=0.5;entryDx=0;entryDy=0;fillColor=#ffe6cc;strokeColor=#d79b00;" parent="1" source="nk2X0FEJClPMyaTlSRbJ-11" target="nk2X0FEJClPMyaTlSRbJ-3" edge="1">
          <mxGeometry width="50" height="50" relative="1" as="geometry">
            <mxPoint x="728" y="290" as="sourcePoint" />
            <mxPoint x="890" y="290" as="targetPoint" />
          </mxGeometry>
        </mxCell>
        <mxCell id="nk2X0FEJClPMyaTlSRbJ-32" value="External Connection" style="edgeLabel;html=1;align=center;verticalAlign=middle;resizable=0;points=[];" parent="nk2X0FEJClPMyaTlSRbJ-31" vertex="1" connectable="0">
          <mxGeometry x="-0.0253" relative="1" as="geometry">
            <mxPoint x="14" y="-10" as="offset" />
          </mxGeometry>
        </mxCell>
        <mxCell id="nk2X0FEJClPMyaTlSRbJ-34" value="" style="endArrow=classic;html=1;rounded=0;exitX=1;exitY=0.5;exitDx=0;exitDy=0;entryX=0;entryY=0.5;entryDx=0;entryDy=0;fillColor=#ffe6cc;strokeColor=#d79b00;" parent="1" source="nk2X0FEJClPMyaTlSRbJ-12" target="nk2X0FEJClPMyaTlSRbJ-4" edge="1">
          <mxGeometry width="50" height="50" relative="1" as="geometry">
            <mxPoint x="738" y="300" as="sourcePoint" />
            <mxPoint x="900" y="300" as="targetPoint" />
          </mxGeometry>
        </mxCell>
        <mxCell id="nk2X0FEJClPMyaTlSRbJ-35" value="External Connection" style="edgeLabel;html=1;align=center;verticalAlign=middle;resizable=0;points=[];" parent="nk2X0FEJClPMyaTlSRbJ-34" vertex="1" connectable="0">
          <mxGeometry x="-0.0253" relative="1" as="geometry">
            <mxPoint x="14" y="-10" as="offset" />
          </mxGeometry>
        </mxCell>
        <mxCell id="nk2X0FEJClPMyaTlSRbJ-36" value="" style="endArrow=classic;html=1;rounded=0;exitX=1;exitY=0.5;exitDx=0;exitDy=0;entryX=0;entryY=0.5;entryDx=0;entryDy=0;fillColor=#ffe6cc;strokeColor=#d79b00;" parent="1" source="nk2X0FEJClPMyaTlSRbJ-13" target="nk2X0FEJClPMyaTlSRbJ-5" edge="1">
          <mxGeometry width="50" height="50" relative="1" as="geometry">
            <mxPoint x="748" y="310" as="sourcePoint" />
            <mxPoint x="910" y="310" as="targetPoint" />
          </mxGeometry>
        </mxCell>
        <mxCell id="nk2X0FEJClPMyaTlSRbJ-37" value="External Connection" style="edgeLabel;html=1;align=center;verticalAlign=middle;resizable=0;points=[];" parent="nk2X0FEJClPMyaTlSRbJ-36" vertex="1" connectable="0">
          <mxGeometry x="-0.0253" relative="1" as="geometry">
            <mxPoint x="14" y="-10" as="offset" />
          </mxGeometry>
        </mxCell>
        <mxCell id="nk2X0FEJClPMyaTlSRbJ-38" value="" style="endArrow=classic;html=1;rounded=0;exitX=1;exitY=0.5;exitDx=0;exitDy=0;fillColor=#ffe6cc;strokeColor=#d79b00;" parent="1" source="nk2X0FEJClPMyaTlSRbJ-14" target="nk2X0FEJClPMyaTlSRbJ-6" edge="1">
          <mxGeometry width="50" height="50" relative="1" as="geometry">
            <mxPoint x="758" y="320" as="sourcePoint" />
            <mxPoint x="920" y="320" as="targetPoint" />
          </mxGeometry>
        </mxCell>
        <mxCell id="nk2X0FEJClPMyaTlSRbJ-39" value="External Connection" style="edgeLabel;html=1;align=center;verticalAlign=middle;resizable=0;points=[];" parent="nk2X0FEJClPMyaTlSRbJ-38" vertex="1" connectable="0">
          <mxGeometry x="-0.0253" relative="1" as="geometry">
            <mxPoint x="14" y="-10" as="offset" />
          </mxGeometry>
        </mxCell>
        <mxCell id="nk2X0FEJClPMyaTlSRbJ-40" value="" style="endArrow=classic;html=1;rounded=0;exitX=1;exitY=0.5;exitDx=0;exitDy=0;entryX=0;entryY=0.5;entryDx=0;entryDy=0;fillColor=#ffe6cc;strokeColor=#d79b00;" parent="1" source="nk2X0FEJClPMyaTlSRbJ-15" target="nk2X0FEJClPMyaTlSRbJ-7" edge="1">
          <mxGeometry width="50" height="50" relative="1" as="geometry">
            <mxPoint x="768" y="330" as="sourcePoint" />
            <mxPoint x="930" y="330" as="targetPoint" />
          </mxGeometry>
        </mxCell>
        <mxCell id="nk2X0FEJClPMyaTlSRbJ-41" value="External Connection" style="edgeLabel;html=1;align=center;verticalAlign=middle;resizable=0;points=[];" parent="nk2X0FEJClPMyaTlSRbJ-40" vertex="1" connectable="0">
          <mxGeometry x="-0.0253" relative="1" as="geometry">
            <mxPoint x="14" y="-10" as="offset" />
          </mxGeometry>
        </mxCell>
        <mxCell id="nk2X0FEJClPMyaTlSRbJ-42" value="" style="endArrow=classic;html=1;rounded=0;exitX=1;exitY=0.5;exitDx=0;exitDy=0;entryX=0;entryY=0.5;entryDx=0;entryDy=0;fillColor=#ffe6cc;strokeColor=#d79b00;" parent="1" source="nk2X0FEJClPMyaTlSRbJ-16" target="nk2X0FEJClPMyaTlSRbJ-8" edge="1">
          <mxGeometry width="50" height="50" relative="1" as="geometry">
            <mxPoint x="778" y="340" as="sourcePoint" />
            <mxPoint x="940" y="340" as="targetPoint" />
          </mxGeometry>
        </mxCell>
        <mxCell id="nk2X0FEJClPMyaTlSRbJ-43" value="External Connection" style="edgeLabel;html=1;align=center;verticalAlign=middle;resizable=0;points=[];" parent="nk2X0FEJClPMyaTlSRbJ-42" vertex="1" connectable="0">
          <mxGeometry x="-0.0253" relative="1" as="geometry">
            <mxPoint x="14" y="-10" as="offset" />
          </mxGeometry>
        </mxCell>
        <mxCell id="nk2X0FEJClPMyaTlSRbJ-56" value="Package Manager" style="rounded=0;whiteSpace=wrap;html=1;" parent="1" vertex="1">
          <mxGeometry y="360" width="120" height="40" as="geometry" />
        </mxCell>
        <mxCell id="nk2X0FEJClPMyaTlSRbJ-59" value="" style="endArrow=classic;html=1;rounded=0;entryX=0;entryY=0.25;entryDx=0;entryDy=0;exitX=1;exitY=0.25;exitDx=0;exitDy=0;" parent="1" source="nk2X0FEJClPMyaTlSRbJ-56" target="nk2X0FEJClPMyaTlSRbJ-53" edge="1">
          <mxGeometry width="50" height="50" relative="1" as="geometry">
            <mxPoint x="130" y="530" as="sourcePoint" />
            <mxPoint x="180" y="480" as="targetPoint" />
          </mxGeometry>
        </mxCell>
        <mxCell id="nk2X0FEJClPMyaTlSRbJ-60" value="" style="endArrow=classic;html=1;rounded=0;entryX=1;entryY=0.75;entryDx=0;entryDy=0;exitX=0;exitY=0.75;exitDx=0;exitDy=0;" parent="1" source="nk2X0FEJClPMyaTlSRbJ-53" target="nk2X0FEJClPMyaTlSRbJ-56" edge="1">
          <mxGeometry width="50" height="50" relative="1" as="geometry">
            <mxPoint x="50" y="440" as="sourcePoint" />
            <mxPoint x="100" y="390" as="targetPoint" />
          </mxGeometry>
        </mxCell>
        <mxCell id="nk2X0FEJClPMyaTlSRbJ-61" value="" style="curved=1;endArrow=classic;html=1;rounded=0;exitX=0;exitY=1;exitDx=0;exitDy=0;entryX=0.5;entryY=1;entryDx=0;entryDy=0;dashed=1;" parent="1" source="nk2X0FEJClPMyaTlSRbJ-8" target="nk2X0FEJClPMyaTlSRbJ-16" edge="1">
          <mxGeometry width="50" height="50" relative="1" as="geometry">
            <mxPoint x="510" y="930" as="sourcePoint" />
            <mxPoint x="560" y="880" as="targetPoint" />
            <Array as="points">
              <mxPoint x="800" y="680" />
            </Array>
          </mxGeometry>
        </mxCell>
        <mxCell id="nk2X0FEJClPMyaTlSRbJ-62" value="Packages" style="edgeLabel;html=1;align=center;verticalAlign=middle;resizable=0;points=[];" parent="nk2X0FEJClPMyaTlSRbJ-61" vertex="1" connectable="0">
          <mxGeometry x="-0.2462" y="-25" relative="1" as="geometry">
            <mxPoint x="-1" as="offset" />
          </mxGeometry>
        </mxCell>
        <mxCell id="nk2X0FEJClPMyaTlSRbJ-57" value="" style="endArrow=classic;html=1;rounded=0;exitX=1;exitY=0.5;exitDx=0;exitDy=0;fillColor=#ffe6cc;strokeColor=#d79b00;entryX=0;entryY=0.5;entryDx=0;entryDy=0;" parent="1" source="nk2X0FEJClPMyaTlSRbJ-53" target="nk2X0FEJClPMyaTlSRbJ-44" edge="1">
          <mxGeometry width="50" height="50" relative="1" as="geometry">
            <mxPoint x="280" y="490" as="sourcePoint" />
            <mxPoint x="240" y="380" as="targetPoint" />
          </mxGeometry>
        </mxCell>
        <mxCell id="nk2X0FEJClPMyaTlSRbJ-58" value="Upstream" style="edgeLabel;html=1;align=center;verticalAlign=middle;resizable=0;points=[];" parent="nk2X0FEJClPMyaTlSRbJ-57" vertex="1" connectable="0">
          <mxGeometry x="0.0473" relative="1" as="geometry">
            <mxPoint x="-12" as="offset" />
          </mxGeometry>
        </mxCell>
        <mxCell id="nk2X0FEJClPMyaTlSRbJ-65" value="" style="curved=1;endArrow=classic;html=1;rounded=0;exitX=0.25;exitY=1;exitDx=0;exitDy=0;entryX=0.5;entryY=1;entryDx=0;entryDy=0;dashed=1;" parent="1" source="nk2X0FEJClPMyaTlSRbJ-44" target="nk2X0FEJClPMyaTlSRbJ-53" edge="1">
          <mxGeometry width="50" height="50" relative="1" as="geometry">
            <mxPoint x="569" y="610" as="sourcePoint" />
            <mxPoint x="363" y="410" as="targetPoint" />
            <Array as="points">
              <mxPoint x="330" y="480" />
            </Array>
          </mxGeometry>
        </mxCell>
        <mxCell id="nk2X0FEJClPMyaTlSRbJ-66" value="Packages" style="edgeLabel;html=1;align=center;verticalAlign=middle;resizable=0;points=[];" parent="nk2X0FEJClPMyaTlSRbJ-65" vertex="1" connectable="0">
          <mxGeometry x="-0.2462" y="-25" relative="1" as="geometry">
            <mxPoint x="-1" as="offset" />
          </mxGeometry>
        </mxCell>
      </root>
    </mxGraphModel>
  </diagram>
  <diagram name="ext-shared-stg-multi" id="MFPo96U5RBanItSp-pPb">
    <mxGraphModel dx="2164" dy="861" grid="1" gridSize="10" guides="1" tooltips="1" connect="1" arrows="1" fold="1" page="1" pageScale="1" pageWidth="850" pageHeight="1100" math="0" shadow="0">
      <root>
        <mxCell id="WiYJXMIqmyH6E6IxXbWN-0" />
        <mxCell id="WiYJXMIqmyH6E6IxXbWN-1" parent="WiYJXMIqmyH6E6IxXbWN-0" />
        <mxCell id="WiYJXMIqmyH6E6IxXbWN-2" value="&lt;code class=&quot;code&quot;&gt;public:npmjs&lt;/code&gt;" style="rounded=1;whiteSpace=wrap;html=1;" parent="WiYJXMIqmyH6E6IxXbWN-1" vertex="1">
          <mxGeometry x="240" y="210" width="160" height="40" as="geometry" />
        </mxCell>
        <mxCell id="WiYJXMIqmyH6E6IxXbWN-3" value="&lt;code class=&quot;code&quot;&gt;public:pypi&lt;/code&gt;" style="rounded=1;whiteSpace=wrap;html=1;" parent="WiYJXMIqmyH6E6IxXbWN-1" vertex="1">
          <mxGeometry x="240" y="260" width="160" height="40" as="geometry" />
        </mxCell>
        <mxCell id="WiYJXMIqmyH6E6IxXbWN-4" value="&lt;code class=&quot;code&quot;&gt;public:maven-central&lt;/code&gt;" style="rounded=1;whiteSpace=wrap;html=1;" parent="WiYJXMIqmyH6E6IxXbWN-1" vertex="1">
          <mxGeometry x="240" y="310" width="160" height="40" as="geometry" />
        </mxCell>
        <mxCell id="WiYJXMIqmyH6E6IxXbWN-5" value="&lt;code class=&quot;code&quot;&gt;public:maven-googleandroid&lt;/code&gt;" style="rounded=1;whiteSpace=wrap;html=1;" parent="WiYJXMIqmyH6E6IxXbWN-1" vertex="1">
          <mxGeometry x="240" y="360" width="160" height="40" as="geometry" />
        </mxCell>
        <mxCell id="WiYJXMIqmyH6E6IxXbWN-6" value="&lt;code class=&quot;code&quot;&gt;public:maven-gradleplugins&lt;/code&gt;" style="rounded=1;whiteSpace=wrap;html=1;" parent="WiYJXMIqmyH6E6IxXbWN-1" vertex="1">
          <mxGeometry x="240" y="410" width="160" height="40" as="geometry" />
        </mxCell>
        <mxCell id="WiYJXMIqmyH6E6IxXbWN-7" value="&lt;code class=&quot;code&quot;&gt;public:maven-commonsware&lt;/code&gt;" style="rounded=1;whiteSpace=wrap;html=1;" parent="WiYJXMIqmyH6E6IxXbWN-1" vertex="1">
          <mxGeometry x="240" y="460" width="160" height="40" as="geometry" />
        </mxCell>
        <mxCell id="WiYJXMIqmyH6E6IxXbWN-8" value="&lt;code class=&quot;code&quot;&gt;public:maven-clojars&lt;/code&gt;" style="rounded=1;whiteSpace=wrap;html=1;" parent="WiYJXMIqmyH6E6IxXbWN-1" vertex="1">
          <mxGeometry x="240" y="510" width="160" height="40" as="geometry" />
        </mxCell>
        <mxCell id="WiYJXMIqmyH6E6IxXbWN-9" value="&lt;code class=&quot;code&quot;&gt;public:nuget-org&lt;/code&gt;" style="rounded=1;whiteSpace=wrap;html=1;" parent="WiYJXMIqmyH6E6IxXbWN-1" vertex="1">
          <mxGeometry x="240" y="560" width="160" height="40" as="geometry" />
        </mxCell>
        <mxCell id="WiYJXMIqmyH6E6IxXbWN-10" value="" style="strokeWidth=2;html=1;shape=mxgraph.flowchart.annotation_1;align=left;pointerEvents=1;rotation=90;" parent="WiYJXMIqmyH6E6IxXbWN-1" vertex="1">
          <mxGeometry x="305.63" y="-41.87" width="15" height="178.75" as="geometry" />
        </mxCell>
        <mxCell id="WiYJXMIqmyH6E6IxXbWN-11" value="External repositores" style="text;html=1;align=center;verticalAlign=middle;resizable=0;points=[];autosize=1;strokeColor=none;fillColor=none;" parent="WiYJXMIqmyH6E6IxXbWN-1" vertex="1">
          <mxGeometry x="248.13" y="8" width="130" height="30" as="geometry" />
        </mxCell>
        <mxCell id="WiYJXMIqmyH6E6IxXbWN-12" value="" style="strokeWidth=2;html=1;shape=mxgraph.flowchart.annotation_1;align=left;pointerEvents=1;rotation=90;" parent="WiYJXMIqmyH6E6IxXbWN-1" vertex="1">
          <mxGeometry x="-288.35" y="-365.85" width="15" height="826.71" as="geometry" />
        </mxCell>
        <mxCell id="WiYJXMIqmyH6E6IxXbWN-13" value="AWS CodeArtifact repositores" style="text;html=1;align=center;verticalAlign=middle;resizable=0;points=[];autosize=1;strokeColor=none;fillColor=none;" parent="WiYJXMIqmyH6E6IxXbWN-1" vertex="1">
          <mxGeometry x="-300" y="8" width="180" height="30" as="geometry" />
        </mxCell>
        <mxCell id="WiYJXMIqmyH6E6IxXbWN-14" value="Central account (AWS Account)" style="points=[[0,0],[0.25,0],[0.5,0],[0.75,0],[1,0],[1,0.25],[1,0.5],[1,0.75],[1,1],[0.75,1],[0.5,1],[0.25,1],[0,1],[0,0.75],[0,0.5],[0,0.25]];outlineConnect=0;gradientColor=none;html=1;whiteSpace=wrap;fontSize=12;fontStyle=0;container=1;pointerEvents=0;collapsible=0;recursiveResize=0;shape=mxgraph.aws4.group;grIcon=mxgraph.aws4.group_account;strokeColor=#CD2264;fillColor=none;verticalAlign=top;align=left;spacingLeft=30;fontColor=#CD2264;dashed=0;" parent="WiYJXMIqmyH6E6IxXbWN-1" vertex="1">
          <mxGeometry x="-400" y="80" width="520" height="540" as="geometry" />
        </mxCell>
        <mxCell id="WiYJXMIqmyH6E6IxXbWN-15" value="&lt;code class=&quot;code&quot;&gt;external-npmjs&lt;/code&gt;" style="rounded=1;whiteSpace=wrap;html=1;" parent="WiYJXMIqmyH6E6IxXbWN-14" vertex="1">
          <mxGeometry x="319.34000000000003" y="130" width="160" height="40" as="geometry" />
        </mxCell>
        <mxCell id="WiYJXMIqmyH6E6IxXbWN-16" value="my-company&lt;br&gt;(CodeArtifact Domain)" style="sketch=0;points=[[0,0,0],[0.25,0,0],[0.5,0,0],[0.75,0,0],[1,0,0],[0,1,0],[0.25,1,0],[0.5,1,0],[0.75,1,0],[1,1,0],[0,0.25,0],[0,0.5,0],[0,0.75,0],[1,0.25,0],[1,0.5,0],[1,0.75,0]];outlineConnect=0;fontColor=#232F3E;gradientColor=#4D72F3;gradientDirection=north;fillColor=#3334B9;strokeColor=#ffffff;dashed=0;verticalLabelPosition=bottom;verticalAlign=top;align=center;html=1;fontSize=12;fontStyle=0;aspect=fixed;shape=mxgraph.aws4.resourceIcon;resIcon=mxgraph.aws4.codeartifact;" parent="WiYJXMIqmyH6E6IxXbWN-14" vertex="1">
          <mxGeometry x="47.84" y="80" width="39" height="39" as="geometry" />
        </mxCell>
        <mxCell id="WiYJXMIqmyH6E6IxXbWN-17" value="&lt;code class=&quot;code&quot;&gt;external-maven-central&lt;/code&gt;" style="rounded=1;whiteSpace=wrap;html=1;" parent="WiYJXMIqmyH6E6IxXbWN-14" vertex="1">
          <mxGeometry x="316.84000000000003" y="230" width="160.5" height="40" as="geometry" />
        </mxCell>
        <mxCell id="WiYJXMIqmyH6E6IxXbWN-18" value="&lt;code class=&quot;code&quot;&gt;external-maven-googleandroid&lt;/code&gt;" style="rounded=1;whiteSpace=wrap;html=1;" parent="WiYJXMIqmyH6E6IxXbWN-14" vertex="1">
          <mxGeometry x="316.84000000000003" y="280" width="160.5" height="40" as="geometry" />
        </mxCell>
        <mxCell id="WiYJXMIqmyH6E6IxXbWN-19" value="&lt;code class=&quot;code&quot;&gt;external-pypi&lt;/code&gt;" style="rounded=1;whiteSpace=wrap;html=1;" parent="WiYJXMIqmyH6E6IxXbWN-14" vertex="1">
          <mxGeometry x="316.84000000000003" y="180" width="160" height="40" as="geometry" />
        </mxCell>
        <mxCell id="WiYJXMIqmyH6E6IxXbWN-20" value="&lt;code class=&quot;code&quot;&gt;external-maven-gradleplugins&lt;/code&gt;" style="rounded=1;whiteSpace=wrap;html=1;" parent="WiYJXMIqmyH6E6IxXbWN-14" vertex="1">
          <mxGeometry x="316.84000000000003" y="330" width="161" height="40" as="geometry" />
        </mxCell>
        <mxCell id="WiYJXMIqmyH6E6IxXbWN-21" value="&lt;code class=&quot;code&quot;&gt;external-maven-commonsware&lt;/code&gt;" style="rounded=1;whiteSpace=wrap;html=1;" parent="WiYJXMIqmyH6E6IxXbWN-14" vertex="1">
          <mxGeometry x="317.84000000000003" y="380" width="160" height="40" as="geometry" />
        </mxCell>
        <mxCell id="WiYJXMIqmyH6E6IxXbWN-22" value="&lt;code class=&quot;code&quot;&gt;external-maven-clojars&lt;/code&gt;" style="rounded=1;whiteSpace=wrap;html=1;" parent="WiYJXMIqmyH6E6IxXbWN-14" vertex="1">
          <mxGeometry x="317.84000000000003" y="430" width="161" height="40" as="geometry" />
        </mxCell>
        <mxCell id="WiYJXMIqmyH6E6IxXbWN-23" value="&lt;code class=&quot;code&quot;&gt;external-nuget-org&lt;/code&gt;" style="rounded=1;whiteSpace=wrap;html=1;" parent="WiYJXMIqmyH6E6IxXbWN-14" vertex="1">
          <mxGeometry x="317.84000000000003" y="480" width="161" height="40" as="geometry" />
        </mxCell>
        <mxCell id="WiYJXMIqmyH6E6IxXbWN-24" value="&lt;code class=&quot;code&quot;&gt;internal-shared&lt;/code&gt;" style="rounded=1;whiteSpace=wrap;html=1;" parent="WiYJXMIqmyH6E6IxXbWN-14" vertex="1">
          <mxGeometry x="166.84" y="280" width="100" height="40" as="geometry" />
        </mxCell>
        <mxCell id="WiYJXMIqmyH6E6IxXbWN-25" value="" style="endArrow=classic;html=1;rounded=0;entryX=0;entryY=0.5;entryDx=0;entryDy=0;exitX=1;exitY=0.5;exitDx=0;exitDy=0;fillColor=#ffe6cc;strokeColor=#d79b00;" parent="WiYJXMIqmyH6E6IxXbWN-14" source="WiYJXMIqmyH6E6IxXbWN-24" target="WiYJXMIqmyH6E6IxXbWN-15" edge="1">
          <mxGeometry width="50" height="50" relative="1" as="geometry">
            <mxPoint x="36.84" y="200" as="sourcePoint" />
            <mxPoint x="86.84" y="150" as="targetPoint" />
          </mxGeometry>
        </mxCell>
        <mxCell id="WiYJXMIqmyH6E6IxXbWN-26" value="Upstream" style="edgeLabel;html=1;align=center;verticalAlign=middle;resizable=0;points=[];" parent="WiYJXMIqmyH6E6IxXbWN-25" vertex="1" connectable="0">
          <mxGeometry x="0.0155" relative="1" as="geometry">
            <mxPoint x="-27" y="16" as="offset" />
          </mxGeometry>
        </mxCell>
        <mxCell id="WiYJXMIqmyH6E6IxXbWN-27" value="" style="endArrow=classic;html=1;rounded=0;entryX=0;entryY=0.5;entryDx=0;entryDy=0;exitX=1;exitY=0.5;exitDx=0;exitDy=0;fillColor=#ffe6cc;strokeColor=#d79b00;" parent="WiYJXMIqmyH6E6IxXbWN-14" source="WiYJXMIqmyH6E6IxXbWN-24" target="WiYJXMIqmyH6E6IxXbWN-19" edge="1">
          <mxGeometry width="50" height="50" relative="1" as="geometry">
            <mxPoint x="156.84" y="150" as="sourcePoint" />
            <mxPoint x="96.84" y="280" as="targetPoint" />
          </mxGeometry>
        </mxCell>
        <mxCell id="WiYJXMIqmyH6E6IxXbWN-28" value="" style="endArrow=classic;html=1;rounded=0;entryX=0;entryY=0.5;entryDx=0;entryDy=0;exitX=1;exitY=0.5;exitDx=0;exitDy=0;fillColor=#ffe6cc;strokeColor=#d79b00;" parent="WiYJXMIqmyH6E6IxXbWN-14" source="WiYJXMIqmyH6E6IxXbWN-24" target="WiYJXMIqmyH6E6IxXbWN-17" edge="1">
          <mxGeometry width="50" height="50" relative="1" as="geometry">
            <mxPoint x="56.84" y="270" as="sourcePoint" />
            <mxPoint x="106.84" y="220" as="targetPoint" />
          </mxGeometry>
        </mxCell>
        <mxCell id="WiYJXMIqmyH6E6IxXbWN-29" value="" style="endArrow=classic;html=1;rounded=0;entryX=0;entryY=0.5;entryDx=0;entryDy=0;exitX=1;exitY=0.5;exitDx=0;exitDy=0;fillColor=#ffe6cc;strokeColor=#d79b00;" parent="WiYJXMIqmyH6E6IxXbWN-14" source="WiYJXMIqmyH6E6IxXbWN-24" target="WiYJXMIqmyH6E6IxXbWN-18" edge="1">
          <mxGeometry width="50" height="50" relative="1" as="geometry">
            <mxPoint x="16.840000000000003" y="330" as="sourcePoint" />
            <mxPoint x="66.84" y="280" as="targetPoint" />
          </mxGeometry>
        </mxCell>
        <mxCell id="WiYJXMIqmyH6E6IxXbWN-30" value="" style="endArrow=classic;html=1;rounded=0;entryX=0;entryY=0.5;entryDx=0;entryDy=0;exitX=1;exitY=0.5;exitDx=0;exitDy=0;fillColor=#ffe6cc;strokeColor=#d79b00;" parent="WiYJXMIqmyH6E6IxXbWN-14" source="WiYJXMIqmyH6E6IxXbWN-24" target="WiYJXMIqmyH6E6IxXbWN-20" edge="1">
          <mxGeometry width="50" height="50" relative="1" as="geometry">
            <mxPoint x="146.84" y="150" as="sourcePoint" />
            <mxPoint x="156.84" y="350" as="targetPoint" />
          </mxGeometry>
        </mxCell>
        <mxCell id="WiYJXMIqmyH6E6IxXbWN-31" value="" style="endArrow=classic;html=1;rounded=0;entryX=0;entryY=0.5;entryDx=0;entryDy=0;exitX=1;exitY=0.5;exitDx=0;exitDy=0;fillColor=#ffe6cc;strokeColor=#d79b00;" parent="WiYJXMIqmyH6E6IxXbWN-14" source="WiYJXMIqmyH6E6IxXbWN-24" target="WiYJXMIqmyH6E6IxXbWN-21" edge="1">
          <mxGeometry width="50" height="50" relative="1" as="geometry">
            <mxPoint x="186.84" y="420" as="sourcePoint" />
            <mxPoint x="236.84" y="370" as="targetPoint" />
          </mxGeometry>
        </mxCell>
        <mxCell id="WiYJXMIqmyH6E6IxXbWN-32" value="" style="endArrow=classic;html=1;rounded=0;entryX=0;entryY=0.5;entryDx=0;entryDy=0;exitX=1;exitY=0.5;exitDx=0;exitDy=0;fillColor=#ffe6cc;strokeColor=#d79b00;" parent="WiYJXMIqmyH6E6IxXbWN-14" source="WiYJXMIqmyH6E6IxXbWN-24" target="WiYJXMIqmyH6E6IxXbWN-22" edge="1">
          <mxGeometry width="50" height="50" relative="1" as="geometry">
            <mxPoint x="6.840000000000003" y="310" as="sourcePoint" />
            <mxPoint x="56.84" y="260" as="targetPoint" />
          </mxGeometry>
        </mxCell>
        <mxCell id="WiYJXMIqmyH6E6IxXbWN-33" value="" style="endArrow=classic;html=1;rounded=0;entryX=0;entryY=0.5;entryDx=0;entryDy=0;exitX=1;exitY=0.5;exitDx=0;exitDy=0;fillColor=#ffe6cc;strokeColor=#d79b00;" parent="WiYJXMIqmyH6E6IxXbWN-14" source="WiYJXMIqmyH6E6IxXbWN-24" target="WiYJXMIqmyH6E6IxXbWN-23" edge="1">
          <mxGeometry width="50" height="50" relative="1" as="geometry">
            <mxPoint x="-143.16" y="300" as="sourcePoint" />
            <mxPoint x="-93.16" y="250" as="targetPoint" />
          </mxGeometry>
        </mxCell>
        <mxCell id="WiYJXMIqmyH6E6IxXbWN-34" value="" style="curved=1;endArrow=classic;html=1;rounded=0;exitX=0;exitY=1;exitDx=0;exitDy=0;entryX=0.5;entryY=1;entryDx=0;entryDy=0;dashed=1;" parent="WiYJXMIqmyH6E6IxXbWN-14" source="WiYJXMIqmyH6E6IxXbWN-23" target="WiYJXMIqmyH6E6IxXbWN-24" edge="1">
          <mxGeometry width="50" height="50" relative="1" as="geometry">
            <mxPoint x="636.84" y="530" as="sourcePoint" />
            <mxPoint x="476.84000000000003" y="530" as="targetPoint" />
            <Array as="points">
              <mxPoint x="216.84" y="490" />
            </Array>
          </mxGeometry>
        </mxCell>
        <mxCell id="WiYJXMIqmyH6E6IxXbWN-35" value="Packages" style="edgeLabel;html=1;align=center;verticalAlign=middle;resizable=0;points=[];" parent="WiYJXMIqmyH6E6IxXbWN-34" vertex="1" connectable="0">
          <mxGeometry x="-0.2462" y="-25" relative="1" as="geometry">
            <mxPoint x="-1" as="offset" />
          </mxGeometry>
        </mxCell>
        <mxCell id="WiYJXMIqmyH6E6IxXbWN-36" value="Development (AWS Account)" style="points=[[0,0],[0.25,0],[0.5,0],[0.75,0],[1,0],[1,0.25],[1,0.5],[1,0.75],[1,1],[0.75,1],[0.5,1],[0.25,1],[0,1],[0,0.75],[0,0.5],[0,0.25]];outlineConnect=0;gradientColor=none;html=1;whiteSpace=wrap;fontSize=12;fontStyle=0;container=1;pointerEvents=0;collapsible=0;recursiveResize=0;shape=mxgraph.aws4.group;grIcon=mxgraph.aws4.group_account;strokeColor=#CD2264;fillColor=none;verticalAlign=top;align=left;spacingLeft=30;fontColor=#CD2264;dashed=0;" parent="WiYJXMIqmyH6E6IxXbWN-1" vertex="1">
          <mxGeometry x="-680" y="150" width="400" height="400" as="geometry" />
        </mxCell>
        <mxCell id="WiYJXMIqmyH6E6IxXbWN-37" value="&lt;code class=&quot;code&quot;&gt;account-a-default&lt;/code&gt;&lt;div&gt;&lt;code class=&quot;code&quot;&gt;(repo)&lt;/code&gt;&lt;/div&gt;" style="rounded=1;whiteSpace=wrap;html=1;" parent="WiYJXMIqmyH6E6IxXbWN-36" vertex="1">
          <mxGeometry x="160" y="210" width="100" height="40" as="geometry" />
        </mxCell>
        <mxCell id="f7aqmOB6oT2p1Jz8wMDE-0" value="&lt;code class=&quot;code&quot;&gt;project-a&lt;br&gt;(repo)&lt;/code&gt;" style="rounded=1;whiteSpace=wrap;html=1;" parent="WiYJXMIqmyH6E6IxXbWN-36" vertex="1">
          <mxGeometry x="20" y="120" width="100" height="40" as="geometry" />
        </mxCell>
        <mxCell id="f7aqmOB6oT2p1Jz8wMDE-1" value="&lt;code class=&quot;code&quot;&gt;project-b&lt;br&gt;(repo)&lt;/code&gt;" style="rounded=1;whiteSpace=wrap;html=1;" parent="WiYJXMIqmyH6E6IxXbWN-36" vertex="1">
          <mxGeometry x="20" y="350" width="100" height="40" as="geometry" />
        </mxCell>
        <mxCell id="f7aqmOB6oT2p1Jz8wMDE-2" value="" style="endArrow=classic;html=1;rounded=0;exitX=1;exitY=0.5;exitDx=0;exitDy=0;fillColor=#ffe6cc;strokeColor=#d79b00;entryX=0;entryY=0;entryDx=0;entryDy=0;" parent="WiYJXMIqmyH6E6IxXbWN-36" source="f7aqmOB6oT2p1Jz8wMDE-0" target="WiYJXMIqmyH6E6IxXbWN-37" edge="1">
          <mxGeometry width="50" height="50" relative="1" as="geometry">
            <mxPoint x="340" y="310" as="sourcePoint" />
            <mxPoint x="473" y="310" as="targetPoint" />
          </mxGeometry>
        </mxCell>
        <mxCell id="f7aqmOB6oT2p1Jz8wMDE-3" value="Upstream" style="edgeLabel;html=1;align=center;verticalAlign=middle;resizable=0;points=[];" parent="f7aqmOB6oT2p1Jz8wMDE-2" vertex="1" connectable="0">
          <mxGeometry x="0.0473" relative="1" as="geometry">
            <mxPoint x="-12" as="offset" />
          </mxGeometry>
        </mxCell>
        <mxCell id="WiYJXMIqmyH6E6IxXbWN-38" value="" style="endArrow=classic;html=1;rounded=0;exitX=1;exitY=0.5;exitDx=0;exitDy=0;entryX=0;entryY=0.5;entryDx=0;entryDy=0;fillColor=#ffe6cc;strokeColor=#d79b00;" parent="WiYJXMIqmyH6E6IxXbWN-1" source="WiYJXMIqmyH6E6IxXbWN-15" target="WiYJXMIqmyH6E6IxXbWN-2" edge="1">
          <mxGeometry width="50" height="50" relative="1" as="geometry">
            <mxPoint x="90" y="230" as="sourcePoint" />
            <mxPoint x="140" y="180" as="targetPoint" />
          </mxGeometry>
        </mxCell>
        <mxCell id="WiYJXMIqmyH6E6IxXbWN-39" value="External Connection" style="edgeLabel;html=1;align=center;verticalAlign=middle;resizable=0;points=[];" parent="WiYJXMIqmyH6E6IxXbWN-38" vertex="1" connectable="0">
          <mxGeometry x="-0.0253" relative="1" as="geometry">
            <mxPoint x="14" y="-10" as="offset" />
          </mxGeometry>
        </mxCell>
        <mxCell id="WiYJXMIqmyH6E6IxXbWN-40" value="" style="endArrow=classic;html=1;rounded=0;exitX=1;exitY=0.5;exitDx=0;exitDy=0;entryX=0;entryY=0.5;entryDx=0;entryDy=0;fillColor=#ffe6cc;strokeColor=#d79b00;" parent="WiYJXMIqmyH6E6IxXbWN-1" source="WiYJXMIqmyH6E6IxXbWN-19" target="WiYJXMIqmyH6E6IxXbWN-3" edge="1">
          <mxGeometry width="50" height="50" relative="1" as="geometry">
            <mxPoint x="88" y="240" as="sourcePoint" />
            <mxPoint x="250" y="240" as="targetPoint" />
          </mxGeometry>
        </mxCell>
        <mxCell id="WiYJXMIqmyH6E6IxXbWN-41" value="External Connection" style="edgeLabel;html=1;align=center;verticalAlign=middle;resizable=0;points=[];" parent="WiYJXMIqmyH6E6IxXbWN-40" vertex="1" connectable="0">
          <mxGeometry x="-0.0253" relative="1" as="geometry">
            <mxPoint x="14" y="-10" as="offset" />
          </mxGeometry>
        </mxCell>
        <mxCell id="WiYJXMIqmyH6E6IxXbWN-42" value="" style="endArrow=classic;html=1;rounded=0;exitX=1;exitY=0.5;exitDx=0;exitDy=0;entryX=0;entryY=0.5;entryDx=0;entryDy=0;fillColor=#ffe6cc;strokeColor=#d79b00;" parent="WiYJXMIqmyH6E6IxXbWN-1" source="WiYJXMIqmyH6E6IxXbWN-17" target="WiYJXMIqmyH6E6IxXbWN-4" edge="1">
          <mxGeometry width="50" height="50" relative="1" as="geometry">
            <mxPoint x="88" y="290" as="sourcePoint" />
            <mxPoint x="250" y="290" as="targetPoint" />
          </mxGeometry>
        </mxCell>
        <mxCell id="WiYJXMIqmyH6E6IxXbWN-43" value="External Connection" style="edgeLabel;html=1;align=center;verticalAlign=middle;resizable=0;points=[];" parent="WiYJXMIqmyH6E6IxXbWN-42" vertex="1" connectable="0">
          <mxGeometry x="-0.0253" relative="1" as="geometry">
            <mxPoint x="14" y="-10" as="offset" />
          </mxGeometry>
        </mxCell>
        <mxCell id="WiYJXMIqmyH6E6IxXbWN-44" value="" style="endArrow=classic;html=1;rounded=0;exitX=1;exitY=0.5;exitDx=0;exitDy=0;entryX=0;entryY=0.5;entryDx=0;entryDy=0;fillColor=#ffe6cc;strokeColor=#d79b00;" parent="WiYJXMIqmyH6E6IxXbWN-1" source="WiYJXMIqmyH6E6IxXbWN-18" target="WiYJXMIqmyH6E6IxXbWN-5" edge="1">
          <mxGeometry width="50" height="50" relative="1" as="geometry">
            <mxPoint x="98" y="300" as="sourcePoint" />
            <mxPoint x="260" y="300" as="targetPoint" />
          </mxGeometry>
        </mxCell>
        <mxCell id="WiYJXMIqmyH6E6IxXbWN-45" value="External Connection" style="edgeLabel;html=1;align=center;verticalAlign=middle;resizable=0;points=[];" parent="WiYJXMIqmyH6E6IxXbWN-44" vertex="1" connectable="0">
          <mxGeometry x="-0.0253" relative="1" as="geometry">
            <mxPoint x="14" y="-10" as="offset" />
          </mxGeometry>
        </mxCell>
        <mxCell id="WiYJXMIqmyH6E6IxXbWN-46" value="" style="endArrow=classic;html=1;rounded=0;exitX=1;exitY=0.5;exitDx=0;exitDy=0;entryX=0;entryY=0.5;entryDx=0;entryDy=0;fillColor=#ffe6cc;strokeColor=#d79b00;" parent="WiYJXMIqmyH6E6IxXbWN-1" source="WiYJXMIqmyH6E6IxXbWN-20" target="WiYJXMIqmyH6E6IxXbWN-6" edge="1">
          <mxGeometry width="50" height="50" relative="1" as="geometry">
            <mxPoint x="108" y="310" as="sourcePoint" />
            <mxPoint x="270" y="310" as="targetPoint" />
          </mxGeometry>
        </mxCell>
        <mxCell id="WiYJXMIqmyH6E6IxXbWN-47" value="External Connection" style="edgeLabel;html=1;align=center;verticalAlign=middle;resizable=0;points=[];" parent="WiYJXMIqmyH6E6IxXbWN-46" vertex="1" connectable="0">
          <mxGeometry x="-0.0253" relative="1" as="geometry">
            <mxPoint x="14" y="-10" as="offset" />
          </mxGeometry>
        </mxCell>
        <mxCell id="WiYJXMIqmyH6E6IxXbWN-48" value="" style="endArrow=classic;html=1;rounded=0;exitX=1;exitY=0.5;exitDx=0;exitDy=0;fillColor=#ffe6cc;strokeColor=#d79b00;" parent="WiYJXMIqmyH6E6IxXbWN-1" source="WiYJXMIqmyH6E6IxXbWN-21" target="WiYJXMIqmyH6E6IxXbWN-7" edge="1">
          <mxGeometry width="50" height="50" relative="1" as="geometry">
            <mxPoint x="118" y="320" as="sourcePoint" />
            <mxPoint x="280" y="320" as="targetPoint" />
          </mxGeometry>
        </mxCell>
        <mxCell id="WiYJXMIqmyH6E6IxXbWN-49" value="External Connection" style="edgeLabel;html=1;align=center;verticalAlign=middle;resizable=0;points=[];" parent="WiYJXMIqmyH6E6IxXbWN-48" vertex="1" connectable="0">
          <mxGeometry x="-0.0253" relative="1" as="geometry">
            <mxPoint x="14" y="-10" as="offset" />
          </mxGeometry>
        </mxCell>
        <mxCell id="WiYJXMIqmyH6E6IxXbWN-50" value="" style="endArrow=classic;html=1;rounded=0;exitX=1;exitY=0.5;exitDx=0;exitDy=0;entryX=0;entryY=0.5;entryDx=0;entryDy=0;fillColor=#ffe6cc;strokeColor=#d79b00;" parent="WiYJXMIqmyH6E6IxXbWN-1" source="WiYJXMIqmyH6E6IxXbWN-22" target="WiYJXMIqmyH6E6IxXbWN-8" edge="1">
          <mxGeometry width="50" height="50" relative="1" as="geometry">
            <mxPoint x="128" y="330" as="sourcePoint" />
            <mxPoint x="290" y="330" as="targetPoint" />
          </mxGeometry>
        </mxCell>
        <mxCell id="WiYJXMIqmyH6E6IxXbWN-51" value="External Connection" style="edgeLabel;html=1;align=center;verticalAlign=middle;resizable=0;points=[];" parent="WiYJXMIqmyH6E6IxXbWN-50" vertex="1" connectable="0">
          <mxGeometry x="-0.0253" relative="1" as="geometry">
            <mxPoint x="14" y="-10" as="offset" />
          </mxGeometry>
        </mxCell>
        <mxCell id="WiYJXMIqmyH6E6IxXbWN-52" value="" style="endArrow=classic;html=1;rounded=0;exitX=1;exitY=0.5;exitDx=0;exitDy=0;entryX=0;entryY=0.5;entryDx=0;entryDy=0;fillColor=#ffe6cc;strokeColor=#d79b00;" parent="WiYJXMIqmyH6E6IxXbWN-1" source="WiYJXMIqmyH6E6IxXbWN-23" target="WiYJXMIqmyH6E6IxXbWN-9" edge="1">
          <mxGeometry width="50" height="50" relative="1" as="geometry">
            <mxPoint x="138" y="340" as="sourcePoint" />
            <mxPoint x="300" y="340" as="targetPoint" />
          </mxGeometry>
        </mxCell>
        <mxCell id="WiYJXMIqmyH6E6IxXbWN-53" value="External Connection" style="edgeLabel;html=1;align=center;verticalAlign=middle;resizable=0;points=[];" parent="WiYJXMIqmyH6E6IxXbWN-52" vertex="1" connectable="0">
          <mxGeometry x="-0.0253" relative="1" as="geometry">
            <mxPoint x="14" y="-10" as="offset" />
          </mxGeometry>
        </mxCell>
        <mxCell id="WiYJXMIqmyH6E6IxXbWN-54" value="Package Manager" style="rounded=0;whiteSpace=wrap;html=1;" parent="WiYJXMIqmyH6E6IxXbWN-1" vertex="1">
          <mxGeometry x="-840" y="270" width="120" height="40" as="geometry" />
        </mxCell>
        <mxCell id="WiYJXMIqmyH6E6IxXbWN-55" value="" style="endArrow=classic;html=1;rounded=0;entryX=0;entryY=0.25;entryDx=0;entryDy=0;exitX=1;exitY=0.25;exitDx=0;exitDy=0;" parent="WiYJXMIqmyH6E6IxXbWN-1" source="WiYJXMIqmyH6E6IxXbWN-54" target="f7aqmOB6oT2p1Jz8wMDE-0" edge="1">
          <mxGeometry width="50" height="50" relative="1" as="geometry">
            <mxPoint x="-510" y="530" as="sourcePoint" />
            <mxPoint x="-460" y="480" as="targetPoint" />
          </mxGeometry>
        </mxCell>
        <mxCell id="WiYJXMIqmyH6E6IxXbWN-56" value="" style="endArrow=classic;html=1;rounded=0;entryX=1;entryY=0.75;entryDx=0;entryDy=0;exitX=0;exitY=0.75;exitDx=0;exitDy=0;" parent="WiYJXMIqmyH6E6IxXbWN-1" source="f7aqmOB6oT2p1Jz8wMDE-0" target="WiYJXMIqmyH6E6IxXbWN-54" edge="1">
          <mxGeometry width="50" height="50" relative="1" as="geometry">
            <mxPoint x="-590" y="440" as="sourcePoint" />
            <mxPoint x="-540" y="390" as="targetPoint" />
          </mxGeometry>
        </mxCell>
        <mxCell id="WiYJXMIqmyH6E6IxXbWN-57" value="" style="curved=1;endArrow=classic;html=1;rounded=0;exitX=0;exitY=1;exitDx=0;exitDy=0;entryX=0.5;entryY=1;entryDx=0;entryDy=0;dashed=1;" parent="WiYJXMIqmyH6E6IxXbWN-1" source="WiYJXMIqmyH6E6IxXbWN-9" target="WiYJXMIqmyH6E6IxXbWN-23" edge="1">
          <mxGeometry width="50" height="50" relative="1" as="geometry">
            <mxPoint x="-130" y="930" as="sourcePoint" />
            <mxPoint x="-80" y="880" as="targetPoint" />
            <Array as="points">
              <mxPoint x="160" y="680" />
            </Array>
          </mxGeometry>
        </mxCell>
        <mxCell id="WiYJXMIqmyH6E6IxXbWN-58" value="Packages" style="edgeLabel;html=1;align=center;verticalAlign=middle;resizable=0;points=[];" parent="WiYJXMIqmyH6E6IxXbWN-57" vertex="1" connectable="0">
          <mxGeometry x="-0.2462" y="-25" relative="1" as="geometry">
            <mxPoint x="-1" as="offset" />
          </mxGeometry>
        </mxCell>
        <mxCell id="WiYJXMIqmyH6E6IxXbWN-59" value="" style="endArrow=classic;html=1;rounded=0;exitX=1;exitY=0.5;exitDx=0;exitDy=0;fillColor=#ffe6cc;strokeColor=#d79b00;entryX=0;entryY=0.5;entryDx=0;entryDy=0;" parent="WiYJXMIqmyH6E6IxXbWN-1" source="WiYJXMIqmyH6E6IxXbWN-37" target="WiYJXMIqmyH6E6IxXbWN-24" edge="1">
          <mxGeometry width="50" height="50" relative="1" as="geometry">
            <mxPoint x="-340" y="410" as="sourcePoint" />
            <mxPoint x="-320" y="380" as="targetPoint" />
          </mxGeometry>
        </mxCell>
        <mxCell id="WiYJXMIqmyH6E6IxXbWN-60" value="Upstream" style="edgeLabel;html=1;align=center;verticalAlign=middle;resizable=0;points=[];" parent="WiYJXMIqmyH6E6IxXbWN-59" vertex="1" connectable="0">
          <mxGeometry x="0.0473" relative="1" as="geometry">
            <mxPoint x="-12" as="offset" />
          </mxGeometry>
        </mxCell>
        <mxCell id="WiYJXMIqmyH6E6IxXbWN-61" value="" style="curved=1;endArrow=classic;html=1;rounded=0;exitX=0.25;exitY=1;exitDx=0;exitDy=0;entryX=1;entryY=0.75;entryDx=0;entryDy=0;dashed=1;" parent="WiYJXMIqmyH6E6IxXbWN-1" source="WiYJXMIqmyH6E6IxXbWN-24" target="WiYJXMIqmyH6E6IxXbWN-37" edge="1">
          <mxGeometry width="50" height="50" relative="1" as="geometry">
            <mxPoint x="9" y="610" as="sourcePoint" />
            <mxPoint x="-390" y="430" as="targetPoint" />
            <Array as="points">
              <mxPoint x="-320" y="470" />
            </Array>
          </mxGeometry>
        </mxCell>
        <mxCell id="WiYJXMIqmyH6E6IxXbWN-62" value="Packages" style="edgeLabel;html=1;align=center;verticalAlign=middle;resizable=0;points=[];" parent="WiYJXMIqmyH6E6IxXbWN-61" vertex="1" connectable="0">
          <mxGeometry x="-0.2462" y="-25" relative="1" as="geometry">
            <mxPoint x="-1" as="offset" />
          </mxGeometry>
        </mxCell>
        <mxCell id="h7kwvS-gX59C8xgOaEE4-2" value="Package Manager" style="rounded=0;whiteSpace=wrap;html=1;" parent="WiYJXMIqmyH6E6IxXbWN-1" vertex="1">
          <mxGeometry x="-830" y="500" width="120" height="40" as="geometry" />
        </mxCell>
        <mxCell id="h7kwvS-gX59C8xgOaEE4-3" value="" style="endArrow=classic;html=1;rounded=0;entryX=0;entryY=0.25;entryDx=0;entryDy=0;exitX=1;exitY=0.25;exitDx=0;exitDy=0;" parent="WiYJXMIqmyH6E6IxXbWN-1" source="h7kwvS-gX59C8xgOaEE4-2" target="f7aqmOB6oT2p1Jz8wMDE-1" edge="1">
          <mxGeometry width="50" height="50" relative="1" as="geometry">
            <mxPoint x="-710" y="220" as="sourcePoint" />
            <mxPoint x="-610" y="220" as="targetPoint" />
          </mxGeometry>
        </mxCell>
        <mxCell id="h7kwvS-gX59C8xgOaEE4-4" value="" style="endArrow=classic;html=1;rounded=0;entryX=1;entryY=0.75;entryDx=0;entryDy=0;exitX=0;exitY=0.75;exitDx=0;exitDy=0;" parent="WiYJXMIqmyH6E6IxXbWN-1" source="f7aqmOB6oT2p1Jz8wMDE-1" target="h7kwvS-gX59C8xgOaEE4-2" edge="1">
          <mxGeometry width="50" height="50" relative="1" as="geometry">
            <mxPoint x="-610" y="240" as="sourcePoint" />
            <mxPoint x="-710" y="240" as="targetPoint" />
          </mxGeometry>
        </mxCell>
        <mxCell id="h7kwvS-gX59C8xgOaEE4-5" value="&lt;code class=&quot;code&quot;&gt;public:nuget-org&lt;/code&gt;" style="rounded=1;whiteSpace=wrap;html=1;" parent="WiYJXMIqmyH6E6IxXbWN-1" vertex="1">
          <mxGeometry x="-580" y="600" width="160" height="40" as="geometry" />
        </mxCell>
        <mxCell id="h7kwvS-gX59C8xgOaEE4-6" value="" style="endArrow=classic;html=1;rounded=0;exitX=0.75;exitY=1;exitDx=0;exitDy=0;fillColor=#ffe6cc;strokeColor=#d79b00;" parent="WiYJXMIqmyH6E6IxXbWN-1" source="f7aqmOB6oT2p1Jz8wMDE-1" target="h7kwvS-gX59C8xgOaEE4-5" edge="1">
          <mxGeometry width="50" height="50" relative="1" as="geometry">
            <mxPoint x="89" y="590" as="sourcePoint" />
            <mxPoint x="250" y="590" as="targetPoint" />
          </mxGeometry>
        </mxCell>
        <mxCell id="h7kwvS-gX59C8xgOaEE4-7" value="External Connection" style="edgeLabel;html=1;align=center;verticalAlign=middle;resizable=0;points=[];" parent="h7kwvS-gX59C8xgOaEE4-6" vertex="1" connectable="0">
          <mxGeometry x="-0.0253" relative="1" as="geometry">
            <mxPoint x="14" y="-10" as="offset" />
          </mxGeometry>
        </mxCell>
      </root>
    </mxGraphModel>
  </diagram>
  <diagram name="ext-stg" id="og2RycPSER1LUvTojZyH">
    <mxGraphModel dx="2164" dy="861" grid="1" gridSize="10" guides="1" tooltips="1" connect="1" arrows="1" fold="1" page="1" pageScale="1" pageWidth="850" pageHeight="1100" math="0" shadow="0">
      <root>
        <mxCell id="dKhJ9_gqpw3DSO_te7K3-0" />
        <mxCell id="dKhJ9_gqpw3DSO_te7K3-1" parent="dKhJ9_gqpw3DSO_te7K3-0" />
        <mxCell id="dKhJ9_gqpw3DSO_te7K3-2" value="&lt;code class=&quot;code&quot;&gt;public:npmjs&lt;/code&gt;" style="rounded=1;whiteSpace=wrap;html=1;" parent="dKhJ9_gqpw3DSO_te7K3-1" vertex="1">
          <mxGeometry x="40" y="210" width="160" height="40" as="geometry" />
        </mxCell>
        <mxCell id="dKhJ9_gqpw3DSO_te7K3-3" value="&lt;code class=&quot;code&quot;&gt;public:pypi&lt;/code&gt;" style="rounded=1;whiteSpace=wrap;html=1;" parent="dKhJ9_gqpw3DSO_te7K3-1" vertex="1">
          <mxGeometry x="40" y="260" width="160" height="40" as="geometry" />
        </mxCell>
        <mxCell id="dKhJ9_gqpw3DSO_te7K3-4" value="&lt;code class=&quot;code&quot;&gt;public:maven-central&lt;/code&gt;" style="rounded=1;whiteSpace=wrap;html=1;" parent="dKhJ9_gqpw3DSO_te7K3-1" vertex="1">
          <mxGeometry x="40" y="310" width="160" height="40" as="geometry" />
        </mxCell>
        <mxCell id="dKhJ9_gqpw3DSO_te7K3-5" value="&lt;code class=&quot;code&quot;&gt;public:maven-googleandroid&lt;/code&gt;" style="rounded=1;whiteSpace=wrap;html=1;" parent="dKhJ9_gqpw3DSO_te7K3-1" vertex="1">
          <mxGeometry x="40" y="360" width="160" height="40" as="geometry" />
        </mxCell>
        <mxCell id="dKhJ9_gqpw3DSO_te7K3-6" value="&lt;code class=&quot;code&quot;&gt;public:maven-gradleplugins&lt;/code&gt;" style="rounded=1;whiteSpace=wrap;html=1;" parent="dKhJ9_gqpw3DSO_te7K3-1" vertex="1">
          <mxGeometry x="40" y="410" width="160" height="40" as="geometry" />
        </mxCell>
        <mxCell id="dKhJ9_gqpw3DSO_te7K3-7" value="&lt;code class=&quot;code&quot;&gt;public:maven-commonsware&lt;/code&gt;" style="rounded=1;whiteSpace=wrap;html=1;" parent="dKhJ9_gqpw3DSO_te7K3-1" vertex="1">
          <mxGeometry x="40" y="460" width="160" height="40" as="geometry" />
        </mxCell>
        <mxCell id="dKhJ9_gqpw3DSO_te7K3-8" value="&lt;code class=&quot;code&quot;&gt;public:maven-clojars&lt;/code&gt;" style="rounded=1;whiteSpace=wrap;html=1;" parent="dKhJ9_gqpw3DSO_te7K3-1" vertex="1">
          <mxGeometry x="40" y="510" width="160" height="40" as="geometry" />
        </mxCell>
        <mxCell id="dKhJ9_gqpw3DSO_te7K3-9" value="&lt;code class=&quot;code&quot;&gt;public:nuget-org&lt;/code&gt;" style="rounded=1;whiteSpace=wrap;html=1;" parent="dKhJ9_gqpw3DSO_te7K3-1" vertex="1">
          <mxGeometry x="40" y="560" width="160" height="40" as="geometry" />
        </mxCell>
        <mxCell id="dKhJ9_gqpw3DSO_te7K3-10" value="" style="strokeWidth=2;html=1;shape=mxgraph.flowchart.annotation_1;align=left;pointerEvents=1;rotation=90;" parent="dKhJ9_gqpw3DSO_te7K3-1" vertex="1">
          <mxGeometry x="105.63" y="-41.87" width="15" height="178.75" as="geometry" />
        </mxCell>
        <mxCell id="dKhJ9_gqpw3DSO_te7K3-11" value="External repositores" style="text;html=1;align=center;verticalAlign=middle;resizable=0;points=[];autosize=1;strokeColor=none;fillColor=none;" parent="dKhJ9_gqpw3DSO_te7K3-1" vertex="1">
          <mxGeometry x="48.129999999999995" y="8" width="130" height="30" as="geometry" />
        </mxCell>
        <mxCell id="dKhJ9_gqpw3DSO_te7K3-12" value="" style="strokeWidth=2;html=1;shape=mxgraph.flowchart.annotation_1;align=left;pointerEvents=1;rotation=90;" parent="dKhJ9_gqpw3DSO_te7K3-1" vertex="1">
          <mxGeometry x="-389.21000000000004" y="-266.71" width="15" height="628.43" as="geometry" />
        </mxCell>
        <mxCell id="dKhJ9_gqpw3DSO_te7K3-13" value="AWS CodeArtifact repositores" style="text;html=1;align=center;verticalAlign=middle;resizable=0;points=[];autosize=1;strokeColor=none;fillColor=none;" parent="dKhJ9_gqpw3DSO_te7K3-1" vertex="1">
          <mxGeometry x="-500" y="8" width="180" height="30" as="geometry" />
        </mxCell>
        <mxCell id="dKhJ9_gqpw3DSO_te7K3-14" value="Central account (AWS Account)" style="points=[[0,0],[0.25,0],[0.5,0],[0.75,0],[1,0],[1,0.25],[1,0.5],[1,0.75],[1,1],[0.75,1],[0.5,1],[0.25,1],[0,1],[0,0.75],[0,0.5],[0,0.25]];outlineConnect=0;gradientColor=none;html=1;whiteSpace=wrap;fontSize=12;fontStyle=0;container=1;pointerEvents=0;collapsible=0;recursiveResize=0;shape=mxgraph.aws4.group;grIcon=mxgraph.aws4.group_account;strokeColor=#CD2264;fillColor=none;verticalAlign=top;align=left;spacingLeft=30;fontColor=#CD2264;dashed=0;" parent="dKhJ9_gqpw3DSO_te7K3-1" vertex="1">
          <mxGeometry x="-440" y="80" width="360" height="120" as="geometry" />
        </mxCell>
        <mxCell id="dKhJ9_gqpw3DSO_te7K3-15" value="&lt;code class=&quot;code&quot;&gt;external-npmjs&lt;/code&gt;" style="rounded=1;whiteSpace=wrap;html=1;" parent="dKhJ9_gqpw3DSO_te7K3-14" vertex="1">
          <mxGeometry x="175.5" y="130" width="160" height="40" as="geometry" />
        </mxCell>
        <mxCell id="dKhJ9_gqpw3DSO_te7K3-16" value="my-company&lt;br&gt;(CodeArtifact Domain)" style="sketch=0;points=[[0,0,0],[0.25,0,0],[0.5,0,0],[0.75,0,0],[1,0,0],[0,1,0],[0.25,1,0],[0.5,1,0],[0.75,1,0],[1,1,0],[0,0.25,0],[0,0.5,0],[0,0.75,0],[1,0.25,0],[1,0.5,0],[1,0.75,0]];outlineConnect=0;fontColor=#232F3E;gradientColor=#4D72F3;gradientDirection=north;fillColor=#3334B9;strokeColor=#ffffff;dashed=0;verticalLabelPosition=bottom;verticalAlign=top;align=center;html=1;fontSize=12;fontStyle=0;aspect=fixed;shape=mxgraph.aws4.resourceIcon;resIcon=mxgraph.aws4.codeartifact;" parent="dKhJ9_gqpw3DSO_te7K3-14" vertex="1">
          <mxGeometry x="240" y="40" width="39" height="39" as="geometry" />
        </mxCell>
        <mxCell id="dKhJ9_gqpw3DSO_te7K3-17" value="&lt;code class=&quot;code&quot;&gt;external-maven-central&lt;/code&gt;" style="rounded=1;whiteSpace=wrap;html=1;" parent="dKhJ9_gqpw3DSO_te7K3-14" vertex="1">
          <mxGeometry x="173" y="230" width="160.5" height="40" as="geometry" />
        </mxCell>
        <mxCell id="dKhJ9_gqpw3DSO_te7K3-18" value="&lt;code class=&quot;code&quot;&gt;external-maven-googleandroid&lt;/code&gt;" style="rounded=1;whiteSpace=wrap;html=1;" parent="dKhJ9_gqpw3DSO_te7K3-14" vertex="1">
          <mxGeometry x="173" y="280" width="160.5" height="40" as="geometry" />
        </mxCell>
        <mxCell id="dKhJ9_gqpw3DSO_te7K3-19" value="&lt;code class=&quot;code&quot;&gt;external-pypi&lt;/code&gt;" style="rounded=1;whiteSpace=wrap;html=1;" parent="dKhJ9_gqpw3DSO_te7K3-14" vertex="1">
          <mxGeometry x="173" y="180" width="160" height="40" as="geometry" />
        </mxCell>
        <mxCell id="dKhJ9_gqpw3DSO_te7K3-20" value="&lt;code class=&quot;code&quot;&gt;external-maven-gradleplugins&lt;/code&gt;" style="rounded=1;whiteSpace=wrap;html=1;" parent="dKhJ9_gqpw3DSO_te7K3-14" vertex="1">
          <mxGeometry x="173" y="330" width="161" height="40" as="geometry" />
        </mxCell>
        <mxCell id="dKhJ9_gqpw3DSO_te7K3-21" value="&lt;code class=&quot;code&quot;&gt;external-maven-commonsware&lt;/code&gt;" style="rounded=1;whiteSpace=wrap;html=1;" parent="dKhJ9_gqpw3DSO_te7K3-14" vertex="1">
          <mxGeometry x="174" y="380" width="160" height="40" as="geometry" />
        </mxCell>
        <mxCell id="dKhJ9_gqpw3DSO_te7K3-22" value="&lt;code class=&quot;code&quot;&gt;external-maven-clojars&lt;/code&gt;" style="rounded=1;whiteSpace=wrap;html=1;" parent="dKhJ9_gqpw3DSO_te7K3-14" vertex="1">
          <mxGeometry x="174" y="430" width="161" height="40" as="geometry" />
        </mxCell>
        <mxCell id="dKhJ9_gqpw3DSO_te7K3-23" value="&lt;code class=&quot;code&quot;&gt;external-nuget-org&lt;/code&gt;" style="rounded=1;whiteSpace=wrap;html=1;" parent="dKhJ9_gqpw3DSO_te7K3-14" vertex="1">
          <mxGeometry x="174" y="480" width="161" height="40" as="geometry" />
        </mxCell>
        <mxCell id="dKhJ9_gqpw3DSO_te7K3-36" value="Development (AWS Account)" style="points=[[0,0],[0.25,0],[0.5,0],[0.75,0],[1,0],[1,0.25],[1,0.5],[1,0.75],[1,1],[0.75,1],[0.5,1],[0.25,1],[0,1],[0,0.75],[0,0.5],[0,0.25]];outlineConnect=0;gradientColor=none;html=1;whiteSpace=wrap;fontSize=12;fontStyle=0;container=1;pointerEvents=0;collapsible=0;recursiveResize=0;shape=mxgraph.aws4.group;grIcon=mxgraph.aws4.group_account;strokeColor=#CD2264;fillColor=none;verticalAlign=top;align=left;spacingLeft=30;fontColor=#CD2264;dashed=0;" parent="dKhJ9_gqpw3DSO_te7K3-1" vertex="1">
          <mxGeometry x="-680" y="120" width="590" height="500" as="geometry" />
        </mxCell>
        <mxCell id="dKhJ9_gqpw3DSO_te7K3-37" value="&lt;code class=&quot;code&quot;&gt;project-a&lt;br&gt;(repo)&lt;/code&gt;" style="rounded=1;whiteSpace=wrap;html=1;" parent="dKhJ9_gqpw3DSO_te7K3-36" vertex="1">
          <mxGeometry x="25" y="240" width="100" height="40" as="geometry" />
        </mxCell>
        <mxCell id="GP0H2U95auD3o1McgwQ8-0" value="&lt;code class=&quot;code&quot;&gt;project-b&lt;br&gt;(repo)&lt;/code&gt;" style="rounded=1;whiteSpace=wrap;html=1;" parent="dKhJ9_gqpw3DSO_te7K3-36" vertex="1">
          <mxGeometry x="25" y="360" width="100" height="40" as="geometry" />
        </mxCell>
        <mxCell id="dKhJ9_gqpw3DSO_te7K3-38" value="" style="endArrow=classic;html=1;rounded=0;exitX=1;exitY=0.5;exitDx=0;exitDy=0;entryX=0;entryY=0.5;entryDx=0;entryDy=0;fillColor=#ffe6cc;strokeColor=#d79b00;" parent="dKhJ9_gqpw3DSO_te7K3-1" source="dKhJ9_gqpw3DSO_te7K3-15" target="dKhJ9_gqpw3DSO_te7K3-2" edge="1">
          <mxGeometry width="50" height="50" relative="1" as="geometry">
            <mxPoint x="-110" y="230" as="sourcePoint" />
            <mxPoint x="-60" y="180" as="targetPoint" />
          </mxGeometry>
        </mxCell>
        <mxCell id="dKhJ9_gqpw3DSO_te7K3-39" value="External Connection" style="edgeLabel;html=1;align=center;verticalAlign=middle;resizable=0;points=[];" parent="dKhJ9_gqpw3DSO_te7K3-38" vertex="1" connectable="0">
          <mxGeometry x="-0.0253" relative="1" as="geometry">
            <mxPoint x="14" y="-10" as="offset" />
          </mxGeometry>
        </mxCell>
        <mxCell id="dKhJ9_gqpw3DSO_te7K3-40" value="" style="endArrow=classic;html=1;rounded=0;exitX=1;exitY=0.5;exitDx=0;exitDy=0;entryX=0;entryY=0.5;entryDx=0;entryDy=0;fillColor=#ffe6cc;strokeColor=#d79b00;" parent="dKhJ9_gqpw3DSO_te7K3-1" source="dKhJ9_gqpw3DSO_te7K3-19" target="dKhJ9_gqpw3DSO_te7K3-3" edge="1">
          <mxGeometry width="50" height="50" relative="1" as="geometry">
            <mxPoint x="-112" y="240" as="sourcePoint" />
            <mxPoint x="50" y="240" as="targetPoint" />
          </mxGeometry>
        </mxCell>
        <mxCell id="dKhJ9_gqpw3DSO_te7K3-41" value="External Connection" style="edgeLabel;html=1;align=center;verticalAlign=middle;resizable=0;points=[];" parent="dKhJ9_gqpw3DSO_te7K3-40" vertex="1" connectable="0">
          <mxGeometry x="-0.0253" relative="1" as="geometry">
            <mxPoint x="14" y="-10" as="offset" />
          </mxGeometry>
        </mxCell>
        <mxCell id="dKhJ9_gqpw3DSO_te7K3-42" value="" style="endArrow=classic;html=1;rounded=0;exitX=1;exitY=0.5;exitDx=0;exitDy=0;entryX=0;entryY=0.5;entryDx=0;entryDy=0;fillColor=#ffe6cc;strokeColor=#d79b00;" parent="dKhJ9_gqpw3DSO_te7K3-1" source="dKhJ9_gqpw3DSO_te7K3-17" target="dKhJ9_gqpw3DSO_te7K3-4" edge="1">
          <mxGeometry width="50" height="50" relative="1" as="geometry">
            <mxPoint x="-112" y="290" as="sourcePoint" />
            <mxPoint x="50" y="290" as="targetPoint" />
          </mxGeometry>
        </mxCell>
        <mxCell id="dKhJ9_gqpw3DSO_te7K3-43" value="External Connection" style="edgeLabel;html=1;align=center;verticalAlign=middle;resizable=0;points=[];" parent="dKhJ9_gqpw3DSO_te7K3-42" vertex="1" connectable="0">
          <mxGeometry x="-0.0253" relative="1" as="geometry">
            <mxPoint x="14" y="-10" as="offset" />
          </mxGeometry>
        </mxCell>
        <mxCell id="dKhJ9_gqpw3DSO_te7K3-44" value="" style="endArrow=classic;html=1;rounded=0;exitX=1;exitY=0.5;exitDx=0;exitDy=0;entryX=0;entryY=0.5;entryDx=0;entryDy=0;fillColor=#ffe6cc;strokeColor=#d79b00;" parent="dKhJ9_gqpw3DSO_te7K3-1" source="dKhJ9_gqpw3DSO_te7K3-18" target="dKhJ9_gqpw3DSO_te7K3-5" edge="1">
          <mxGeometry width="50" height="50" relative="1" as="geometry">
            <mxPoint x="-102" y="300" as="sourcePoint" />
            <mxPoint x="60" y="300" as="targetPoint" />
          </mxGeometry>
        </mxCell>
        <mxCell id="dKhJ9_gqpw3DSO_te7K3-45" value="External Connection" style="edgeLabel;html=1;align=center;verticalAlign=middle;resizable=0;points=[];" parent="dKhJ9_gqpw3DSO_te7K3-44" vertex="1" connectable="0">
          <mxGeometry x="-0.0253" relative="1" as="geometry">
            <mxPoint x="14" y="-10" as="offset" />
          </mxGeometry>
        </mxCell>
        <mxCell id="dKhJ9_gqpw3DSO_te7K3-46" value="" style="endArrow=classic;html=1;rounded=0;exitX=1;exitY=0.5;exitDx=0;exitDy=0;entryX=0;entryY=0.5;entryDx=0;entryDy=0;fillColor=#ffe6cc;strokeColor=#d79b00;" parent="dKhJ9_gqpw3DSO_te7K3-1" source="dKhJ9_gqpw3DSO_te7K3-20" target="dKhJ9_gqpw3DSO_te7K3-6" edge="1">
          <mxGeometry width="50" height="50" relative="1" as="geometry">
            <mxPoint x="-92" y="310" as="sourcePoint" />
            <mxPoint x="70" y="310" as="targetPoint" />
          </mxGeometry>
        </mxCell>
        <mxCell id="dKhJ9_gqpw3DSO_te7K3-47" value="External Connection" style="edgeLabel;html=1;align=center;verticalAlign=middle;resizable=0;points=[];" parent="dKhJ9_gqpw3DSO_te7K3-46" vertex="1" connectable="0">
          <mxGeometry x="-0.0253" relative="1" as="geometry">
            <mxPoint x="14" y="-10" as="offset" />
          </mxGeometry>
        </mxCell>
        <mxCell id="dKhJ9_gqpw3DSO_te7K3-48" value="" style="endArrow=classic;html=1;rounded=0;exitX=1;exitY=0.5;exitDx=0;exitDy=0;fillColor=#ffe6cc;strokeColor=#d79b00;" parent="dKhJ9_gqpw3DSO_te7K3-1" source="dKhJ9_gqpw3DSO_te7K3-21" target="dKhJ9_gqpw3DSO_te7K3-7" edge="1">
          <mxGeometry width="50" height="50" relative="1" as="geometry">
            <mxPoint x="-82" y="320" as="sourcePoint" />
            <mxPoint x="80" y="320" as="targetPoint" />
          </mxGeometry>
        </mxCell>
        <mxCell id="dKhJ9_gqpw3DSO_te7K3-49" value="External Connection" style="edgeLabel;html=1;align=center;verticalAlign=middle;resizable=0;points=[];" parent="dKhJ9_gqpw3DSO_te7K3-48" vertex="1" connectable="0">
          <mxGeometry x="-0.0253" relative="1" as="geometry">
            <mxPoint x="14" y="-10" as="offset" />
          </mxGeometry>
        </mxCell>
        <mxCell id="dKhJ9_gqpw3DSO_te7K3-50" value="" style="endArrow=classic;html=1;rounded=0;exitX=1;exitY=0.5;exitDx=0;exitDy=0;entryX=0;entryY=0.5;entryDx=0;entryDy=0;fillColor=#ffe6cc;strokeColor=#d79b00;" parent="dKhJ9_gqpw3DSO_te7K3-1" source="dKhJ9_gqpw3DSO_te7K3-22" target="dKhJ9_gqpw3DSO_te7K3-8" edge="1">
          <mxGeometry width="50" height="50" relative="1" as="geometry">
            <mxPoint x="-72" y="330" as="sourcePoint" />
            <mxPoint x="90" y="330" as="targetPoint" />
          </mxGeometry>
        </mxCell>
        <mxCell id="dKhJ9_gqpw3DSO_te7K3-51" value="External Connection" style="edgeLabel;html=1;align=center;verticalAlign=middle;resizable=0;points=[];" parent="dKhJ9_gqpw3DSO_te7K3-50" vertex="1" connectable="0">
          <mxGeometry x="-0.0253" relative="1" as="geometry">
            <mxPoint x="14" y="-10" as="offset" />
          </mxGeometry>
        </mxCell>
        <mxCell id="dKhJ9_gqpw3DSO_te7K3-52" value="" style="endArrow=classic;html=1;rounded=0;exitX=1;exitY=0.5;exitDx=0;exitDy=0;entryX=0;entryY=0.5;entryDx=0;entryDy=0;fillColor=#ffe6cc;strokeColor=#d79b00;" parent="dKhJ9_gqpw3DSO_te7K3-1" source="dKhJ9_gqpw3DSO_te7K3-23" target="dKhJ9_gqpw3DSO_te7K3-9" edge="1">
          <mxGeometry width="50" height="50" relative="1" as="geometry">
            <mxPoint x="-62" y="340" as="sourcePoint" />
            <mxPoint x="100" y="340" as="targetPoint" />
          </mxGeometry>
        </mxCell>
        <mxCell id="dKhJ9_gqpw3DSO_te7K3-53" value="External Connection" style="edgeLabel;html=1;align=center;verticalAlign=middle;resizable=0;points=[];" parent="dKhJ9_gqpw3DSO_te7K3-52" vertex="1" connectable="0">
          <mxGeometry x="-0.0253" relative="1" as="geometry">
            <mxPoint x="14" y="-10" as="offset" />
          </mxGeometry>
        </mxCell>
        <mxCell id="dKhJ9_gqpw3DSO_te7K3-54" value="Package Manager" style="rounded=0;whiteSpace=wrap;html=1;" parent="dKhJ9_gqpw3DSO_te7K3-1" vertex="1">
          <mxGeometry x="-840" y="360" width="120" height="40" as="geometry" />
        </mxCell>
        <mxCell id="dKhJ9_gqpw3DSO_te7K3-55" value="" style="endArrow=classic;html=1;rounded=0;entryX=0;entryY=0.25;entryDx=0;entryDy=0;exitX=1;exitY=0.25;exitDx=0;exitDy=0;" parent="dKhJ9_gqpw3DSO_te7K3-1" source="dKhJ9_gqpw3DSO_te7K3-54" target="dKhJ9_gqpw3DSO_te7K3-37" edge="1">
          <mxGeometry width="50" height="50" relative="1" as="geometry">
            <mxPoint x="-710" y="530" as="sourcePoint" />
            <mxPoint x="-660" y="480" as="targetPoint" />
          </mxGeometry>
        </mxCell>
        <mxCell id="dKhJ9_gqpw3DSO_te7K3-56" value="" style="endArrow=classic;html=1;rounded=0;entryX=1;entryY=0.75;entryDx=0;entryDy=0;exitX=0;exitY=0.75;exitDx=0;exitDy=0;" parent="dKhJ9_gqpw3DSO_te7K3-1" source="dKhJ9_gqpw3DSO_te7K3-37" target="dKhJ9_gqpw3DSO_te7K3-54" edge="1">
          <mxGeometry width="50" height="50" relative="1" as="geometry">
            <mxPoint x="-790" y="440" as="sourcePoint" />
            <mxPoint x="-740" y="390" as="targetPoint" />
          </mxGeometry>
        </mxCell>
        <mxCell id="dKhJ9_gqpw3DSO_te7K3-57" value="" style="curved=1;endArrow=classic;html=1;rounded=0;exitX=0;exitY=1;exitDx=0;exitDy=0;entryX=0.5;entryY=1;entryDx=0;entryDy=0;dashed=1;" parent="dKhJ9_gqpw3DSO_te7K3-1" source="dKhJ9_gqpw3DSO_te7K3-9" target="dKhJ9_gqpw3DSO_te7K3-23" edge="1">
          <mxGeometry width="50" height="50" relative="1" as="geometry">
            <mxPoint x="-330" y="930" as="sourcePoint" />
            <mxPoint x="-280" y="880" as="targetPoint" />
            <Array as="points">
              <mxPoint x="-40" y="680" />
            </Array>
          </mxGeometry>
        </mxCell>
        <mxCell id="dKhJ9_gqpw3DSO_te7K3-58" value="Packages" style="edgeLabel;html=1;align=center;verticalAlign=middle;resizable=0;points=[];" parent="dKhJ9_gqpw3DSO_te7K3-57" vertex="1" connectable="0">
          <mxGeometry x="-0.2462" y="-25" relative="1" as="geometry">
            <mxPoint x="-1" as="offset" />
          </mxGeometry>
        </mxCell>
        <mxCell id="dKhJ9_gqpw3DSO_te7K3-59" value="" style="endArrow=classic;html=1;rounded=0;exitX=1;exitY=0.5;exitDx=0;exitDy=0;fillColor=#ffe6cc;strokeColor=#d79b00;entryX=0;entryY=0.5;entryDx=0;entryDy=0;" parent="dKhJ9_gqpw3DSO_te7K3-1" source="dKhJ9_gqpw3DSO_te7K3-37" target="dKhJ9_gqpw3DSO_te7K3-24" edge="1">
          <mxGeometry width="50" height="50" relative="1" as="geometry">
            <mxPoint x="-560" y="490" as="sourcePoint" />
            <mxPoint x="-600" y="380" as="targetPoint" />
          </mxGeometry>
        </mxCell>
        <mxCell id="dKhJ9_gqpw3DSO_te7K3-60" value="Upstream" style="edgeLabel;html=1;align=center;verticalAlign=middle;resizable=0;points=[];" parent="dKhJ9_gqpw3DSO_te7K3-59" vertex="1" connectable="0">
          <mxGeometry x="0.0473" relative="1" as="geometry">
            <mxPoint x="-12" as="offset" />
          </mxGeometry>
        </mxCell>
        <mxCell id="dKhJ9_gqpw3DSO_te7K3-61" value="" style="curved=1;endArrow=classic;html=1;rounded=0;exitX=0.25;exitY=1;exitDx=0;exitDy=0;entryX=0.5;entryY=1;entryDx=0;entryDy=0;dashed=1;" parent="dKhJ9_gqpw3DSO_te7K3-1" source="dKhJ9_gqpw3DSO_te7K3-24" target="dKhJ9_gqpw3DSO_te7K3-37" edge="1">
          <mxGeometry width="50" height="50" relative="1" as="geometry">
            <mxPoint x="-271" y="610" as="sourcePoint" />
            <mxPoint x="-477" y="410" as="targetPoint" />
            <Array as="points">
              <mxPoint x="-510" y="480" />
            </Array>
          </mxGeometry>
        </mxCell>
        <mxCell id="dKhJ9_gqpw3DSO_te7K3-62" value="Packages" style="edgeLabel;html=1;align=center;verticalAlign=middle;resizable=0;points=[];" parent="dKhJ9_gqpw3DSO_te7K3-61" vertex="1" connectable="0">
          <mxGeometry x="-0.2462" y="-25" relative="1" as="geometry">
            <mxPoint x="-1" as="offset" />
          </mxGeometry>
        </mxCell>
        <mxCell id="dKhJ9_gqpw3DSO_te7K3-24" value="&lt;font face=&quot;Courier New&quot;&gt;account-a-default&lt;br&gt;(repo)&lt;/font&gt;" style="rounded=1;whiteSpace=wrap;html=1;" parent="dKhJ9_gqpw3DSO_te7K3-1" vertex="1">
          <mxGeometry x="-470" y="360" width="100" height="40" as="geometry" />
        </mxCell>
        <mxCell id="dKhJ9_gqpw3DSO_te7K3-34" value="" style="curved=1;endArrow=classic;html=1;rounded=0;exitX=0;exitY=1;exitDx=0;exitDy=0;entryX=0.5;entryY=1;entryDx=0;entryDy=0;dashed=1;" parent="dKhJ9_gqpw3DSO_te7K3-1" source="dKhJ9_gqpw3DSO_te7K3-23" target="dKhJ9_gqpw3DSO_te7K3-24" edge="1">
          <mxGeometry width="50" height="50" relative="1" as="geometry">
            <mxPoint x="53" y="610" as="sourcePoint" />
            <mxPoint x="-107" y="610" as="targetPoint" />
            <Array as="points">
              <mxPoint x="-367" y="570" />
            </Array>
          </mxGeometry>
        </mxCell>
        <mxCell id="dKhJ9_gqpw3DSO_te7K3-35" value="Packages" style="edgeLabel;html=1;align=center;verticalAlign=middle;resizable=0;points=[];" parent="dKhJ9_gqpw3DSO_te7K3-34" vertex="1" connectable="0">
          <mxGeometry x="-0.2462" y="-25" relative="1" as="geometry">
            <mxPoint x="-1" as="offset" />
          </mxGeometry>
        </mxCell>
        <mxCell id="dKhJ9_gqpw3DSO_te7K3-33" value="" style="endArrow=classic;html=1;rounded=0;entryX=0;entryY=0.5;entryDx=0;entryDy=0;exitX=1;exitY=0.5;exitDx=0;exitDy=0;fillColor=#ffe6cc;strokeColor=#d79b00;" parent="dKhJ9_gqpw3DSO_te7K3-1" source="dKhJ9_gqpw3DSO_te7K3-24" target="dKhJ9_gqpw3DSO_te7K3-23" edge="1">
          <mxGeometry width="50" height="50" relative="1" as="geometry">
            <mxPoint x="-727" y="380" as="sourcePoint" />
            <mxPoint x="-677" y="330" as="targetPoint" />
          </mxGeometry>
        </mxCell>
        <mxCell id="dKhJ9_gqpw3DSO_te7K3-32" value="" style="endArrow=classic;html=1;rounded=0;entryX=0;entryY=0.5;entryDx=0;entryDy=0;exitX=1;exitY=0.5;exitDx=0;exitDy=0;fillColor=#ffe6cc;strokeColor=#d79b00;" parent="dKhJ9_gqpw3DSO_te7K3-1" source="dKhJ9_gqpw3DSO_te7K3-24" target="dKhJ9_gqpw3DSO_te7K3-22" edge="1">
          <mxGeometry width="50" height="50" relative="1" as="geometry">
            <mxPoint x="-577" y="390" as="sourcePoint" />
            <mxPoint x="-527" y="340" as="targetPoint" />
          </mxGeometry>
        </mxCell>
        <mxCell id="dKhJ9_gqpw3DSO_te7K3-31" value="" style="endArrow=classic;html=1;rounded=0;entryX=0;entryY=0.5;entryDx=0;entryDy=0;exitX=1;exitY=0.5;exitDx=0;exitDy=0;fillColor=#ffe6cc;strokeColor=#d79b00;" parent="dKhJ9_gqpw3DSO_te7K3-1" source="dKhJ9_gqpw3DSO_te7K3-24" target="dKhJ9_gqpw3DSO_te7K3-21" edge="1">
          <mxGeometry width="50" height="50" relative="1" as="geometry">
            <mxPoint x="-397" y="500" as="sourcePoint" />
            <mxPoint x="-347" y="450" as="targetPoint" />
          </mxGeometry>
        </mxCell>
        <mxCell id="dKhJ9_gqpw3DSO_te7K3-30" value="" style="endArrow=classic;html=1;rounded=0;entryX=0;entryY=0.5;entryDx=0;entryDy=0;exitX=1;exitY=0.5;exitDx=0;exitDy=0;fillColor=#ffe6cc;strokeColor=#d79b00;" parent="dKhJ9_gqpw3DSO_te7K3-1" source="dKhJ9_gqpw3DSO_te7K3-24" target="dKhJ9_gqpw3DSO_te7K3-20" edge="1">
          <mxGeometry width="50" height="50" relative="1" as="geometry">
            <mxPoint x="-437" y="230" as="sourcePoint" />
            <mxPoint x="-427" y="430" as="targetPoint" />
          </mxGeometry>
        </mxCell>
        <mxCell id="dKhJ9_gqpw3DSO_te7K3-29" value="" style="endArrow=classic;html=1;rounded=0;entryX=0;entryY=0.5;entryDx=0;entryDy=0;exitX=1;exitY=0.5;exitDx=0;exitDy=0;fillColor=#ffe6cc;strokeColor=#d79b00;" parent="dKhJ9_gqpw3DSO_te7K3-1" source="dKhJ9_gqpw3DSO_te7K3-24" target="dKhJ9_gqpw3DSO_te7K3-18" edge="1">
          <mxGeometry width="50" height="50" relative="1" as="geometry">
            <mxPoint x="-567" y="410" as="sourcePoint" />
            <mxPoint x="-517" y="360" as="targetPoint" />
          </mxGeometry>
        </mxCell>
        <mxCell id="dKhJ9_gqpw3DSO_te7K3-28" value="" style="endArrow=classic;html=1;rounded=0;entryX=0;entryY=0.5;entryDx=0;entryDy=0;exitX=1;exitY=0.5;exitDx=0;exitDy=0;fillColor=#ffe6cc;strokeColor=#d79b00;" parent="dKhJ9_gqpw3DSO_te7K3-1" source="dKhJ9_gqpw3DSO_te7K3-24" target="dKhJ9_gqpw3DSO_te7K3-17" edge="1">
          <mxGeometry width="50" height="50" relative="1" as="geometry">
            <mxPoint x="-527" y="350" as="sourcePoint" />
            <mxPoint x="-477" y="300" as="targetPoint" />
          </mxGeometry>
        </mxCell>
        <mxCell id="dKhJ9_gqpw3DSO_te7K3-27" value="" style="endArrow=classic;html=1;rounded=0;entryX=0;entryY=0.5;entryDx=0;entryDy=0;exitX=1;exitY=0.5;exitDx=0;exitDy=0;fillColor=#ffe6cc;strokeColor=#d79b00;" parent="dKhJ9_gqpw3DSO_te7K3-1" source="dKhJ9_gqpw3DSO_te7K3-24" target="dKhJ9_gqpw3DSO_te7K3-19" edge="1">
          <mxGeometry width="50" height="50" relative="1" as="geometry">
            <mxPoint x="-427" y="230" as="sourcePoint" />
            <mxPoint x="-487" y="360" as="targetPoint" />
          </mxGeometry>
        </mxCell>
        <mxCell id="dKhJ9_gqpw3DSO_te7K3-25" value="" style="endArrow=classic;html=1;rounded=0;entryX=0;entryY=0.5;entryDx=0;entryDy=0;exitX=1;exitY=0.5;exitDx=0;exitDy=0;fillColor=#ffe6cc;strokeColor=#d79b00;" parent="dKhJ9_gqpw3DSO_te7K3-1" source="dKhJ9_gqpw3DSO_te7K3-24" target="dKhJ9_gqpw3DSO_te7K3-15" edge="1">
          <mxGeometry width="50" height="50" relative="1" as="geometry">
            <mxPoint x="-547" y="280" as="sourcePoint" />
            <mxPoint x="-497" y="230" as="targetPoint" />
          </mxGeometry>
        </mxCell>
        <mxCell id="dKhJ9_gqpw3DSO_te7K3-26" value="Upstream" style="edgeLabel;html=1;align=center;verticalAlign=middle;resizable=0;points=[];" parent="dKhJ9_gqpw3DSO_te7K3-25" vertex="1" connectable="0">
          <mxGeometry x="0.0155" relative="1" as="geometry">
            <mxPoint x="-27" y="16" as="offset" />
          </mxGeometry>
        </mxCell>
      </root>
    </mxGraphModel>
  </diagram>
  <diagram id="8naOfBq8XehY7a780BIp" name="ext-shared-account-dev">
    <mxGraphModel dx="2164" dy="861" grid="1" gridSize="10" guides="1" tooltips="1" connect="1" arrows="1" fold="1" page="1" pageScale="1" pageWidth="850" pageHeight="1100" math="0" shadow="0">
      <root>
        <mxCell id="0" />
        <mxCell id="1" parent="0" />
        <mxCell id="FHVcId86m0RkL3j9cTXw-1" value="&lt;code class=&quot;code&quot;&gt;public:npmjs&lt;/code&gt;" style="rounded=1;whiteSpace=wrap;html=1;" parent="1" vertex="1">
          <mxGeometry x="60" y="210" width="160" height="40" as="geometry" />
        </mxCell>
        <mxCell id="FHVcId86m0RkL3j9cTXw-2" value="&lt;code class=&quot;code&quot;&gt;public:pypi&lt;/code&gt;" style="rounded=1;whiteSpace=wrap;html=1;" parent="1" vertex="1">
          <mxGeometry x="60" y="260" width="160" height="40" as="geometry" />
        </mxCell>
        <mxCell id="FHVcId86m0RkL3j9cTXw-3" value="&lt;code class=&quot;code&quot;&gt;public:maven-central&lt;/code&gt;" style="rounded=1;whiteSpace=wrap;html=1;" parent="1" vertex="1">
          <mxGeometry x="60" y="310" width="160" height="40" as="geometry" />
        </mxCell>
        <mxCell id="FHVcId86m0RkL3j9cTXw-4" value="&lt;code class=&quot;code&quot;&gt;public:maven-googleandroid&lt;/code&gt;" style="rounded=1;whiteSpace=wrap;html=1;" parent="1" vertex="1">
          <mxGeometry x="60" y="360" width="160" height="40" as="geometry" />
        </mxCell>
        <mxCell id="FHVcId86m0RkL3j9cTXw-5" value="&lt;code class=&quot;code&quot;&gt;public:maven-gradleplugins&lt;/code&gt;" style="rounded=1;whiteSpace=wrap;html=1;" parent="1" vertex="1">
          <mxGeometry x="60" y="410" width="160" height="40" as="geometry" />
        </mxCell>
        <mxCell id="FHVcId86m0RkL3j9cTXw-6" value="&lt;code class=&quot;code&quot;&gt;public:maven-commonsware&lt;/code&gt;" style="rounded=1;whiteSpace=wrap;html=1;" parent="1" vertex="1">
          <mxGeometry x="60" y="460" width="160" height="40" as="geometry" />
        </mxCell>
        <mxCell id="FHVcId86m0RkL3j9cTXw-7" value="&lt;code class=&quot;code&quot;&gt;public:maven-clojars&lt;/code&gt;" style="rounded=1;whiteSpace=wrap;html=1;" parent="1" vertex="1">
          <mxGeometry x="60" y="510" width="160" height="40" as="geometry" />
        </mxCell>
        <mxCell id="FHVcId86m0RkL3j9cTXw-8" value="&lt;code class=&quot;code&quot;&gt;public:nuget-org&lt;/code&gt;" style="rounded=1;whiteSpace=wrap;html=1;" parent="1" vertex="1">
          <mxGeometry x="60" y="560" width="160" height="40" as="geometry" />
        </mxCell>
        <mxCell id="FHVcId86m0RkL3j9cTXw-9" value="" style="strokeWidth=2;html=1;shape=mxgraph.flowchart.annotation_1;align=left;pointerEvents=1;rotation=90;" parent="1" vertex="1">
          <mxGeometry x="125.63" y="-41.87" width="15" height="178.75" as="geometry" />
        </mxCell>
        <mxCell id="FHVcId86m0RkL3j9cTXw-10" value="External repositores" style="text;html=1;align=center;verticalAlign=middle;resizable=0;points=[];autosize=1;strokeColor=none;fillColor=none;" parent="1" vertex="1">
          <mxGeometry x="68.13" y="8" width="130" height="30" as="geometry" />
        </mxCell>
        <mxCell id="FHVcId86m0RkL3j9cTXw-11" value="" style="strokeWidth=2;html=1;shape=mxgraph.flowchart.annotation_1;align=left;pointerEvents=1;rotation=90;" parent="1" vertex="1">
          <mxGeometry x="-369.21000000000004" y="-266.71" width="15" height="628.43" as="geometry" />
        </mxCell>
        <mxCell id="FHVcId86m0RkL3j9cTXw-12" value="AWS CodeArtifact repositores" style="text;html=1;align=center;verticalAlign=middle;resizable=0;points=[];autosize=1;strokeColor=none;fillColor=none;" parent="1" vertex="1">
          <mxGeometry x="-480" y="8" width="180" height="30" as="geometry" />
        </mxCell>
        <mxCell id="FHVcId86m0RkL3j9cTXw-13" value="Central account (AWS Account)" style="points=[[0,0],[0.25,0],[0.5,0],[0.75,0],[1,0],[1,0.25],[1,0.5],[1,0.75],[1,1],[0.75,1],[0.5,1],[0.25,1],[0,1],[0,0.75],[0,0.5],[0,0.25]];outlineConnect=0;gradientColor=none;html=1;whiteSpace=wrap;fontSize=12;fontStyle=0;container=1;pointerEvents=0;collapsible=0;recursiveResize=0;shape=mxgraph.aws4.group;grIcon=mxgraph.aws4.group_account;strokeColor=#CD2264;fillColor=none;verticalAlign=top;align=left;spacingLeft=30;fontColor=#CD2264;dashed=0;" parent="1" vertex="1">
          <mxGeometry x="-420" y="80" width="360" height="540" as="geometry" />
        </mxCell>
        <mxCell id="FHVcId86m0RkL3j9cTXw-14" value="&lt;code class=&quot;code&quot;&gt;external-npmjs&lt;/code&gt;" style="rounded=1;whiteSpace=wrap;html=1;" parent="FHVcId86m0RkL3j9cTXw-13" vertex="1">
          <mxGeometry x="175.5" y="130" width="160" height="40" as="geometry" />
        </mxCell>
        <mxCell id="FHVcId86m0RkL3j9cTXw-15" value="my-company&lt;br&gt;(CodeArtifact Domain)" style="sketch=0;points=[[0,0,0],[0.25,0,0],[0.5,0,0],[0.75,0,0],[1,0,0],[0,1,0],[0.25,1,0],[0.5,1,0],[0.75,1,0],[1,1,0],[0,0.25,0],[0,0.5,0],[0,0.75,0],[1,0.25,0],[1,0.5,0],[1,0.75,0]];outlineConnect=0;fontColor=#232F3E;gradientColor=#4D72F3;gradientDirection=north;fillColor=#3334B9;strokeColor=#ffffff;dashed=0;verticalLabelPosition=bottom;verticalAlign=top;align=center;html=1;fontSize=12;fontStyle=0;aspect=fixed;shape=mxgraph.aws4.resourceIcon;resIcon=mxgraph.aws4.codeartifact;" parent="FHVcId86m0RkL3j9cTXw-13" vertex="1">
          <mxGeometry x="240" y="40" width="39" height="39" as="geometry" />
        </mxCell>
        <mxCell id="FHVcId86m0RkL3j9cTXw-16" value="&lt;code class=&quot;code&quot;&gt;external-maven-central&lt;/code&gt;" style="rounded=1;whiteSpace=wrap;html=1;" parent="FHVcId86m0RkL3j9cTXw-13" vertex="1">
          <mxGeometry x="173" y="230" width="160.5" height="40" as="geometry" />
        </mxCell>
        <mxCell id="FHVcId86m0RkL3j9cTXw-17" value="&lt;code class=&quot;code&quot;&gt;external-maven-googleandroid&lt;/code&gt;" style="rounded=1;whiteSpace=wrap;html=1;" parent="FHVcId86m0RkL3j9cTXw-13" vertex="1">
          <mxGeometry x="173" y="280" width="160.5" height="40" as="geometry" />
        </mxCell>
        <mxCell id="FHVcId86m0RkL3j9cTXw-18" value="&lt;code class=&quot;code&quot;&gt;external-pypi&lt;/code&gt;" style="rounded=1;whiteSpace=wrap;html=1;" parent="FHVcId86m0RkL3j9cTXw-13" vertex="1">
          <mxGeometry x="173" y="180" width="160" height="40" as="geometry" />
        </mxCell>
        <mxCell id="FHVcId86m0RkL3j9cTXw-19" value="&lt;code class=&quot;code&quot;&gt;external-maven-gradleplugins&lt;/code&gt;" style="rounded=1;whiteSpace=wrap;html=1;" parent="FHVcId86m0RkL3j9cTXw-13" vertex="1">
          <mxGeometry x="173" y="330" width="161" height="40" as="geometry" />
        </mxCell>
        <mxCell id="FHVcId86m0RkL3j9cTXw-20" value="&lt;code class=&quot;code&quot;&gt;external-maven-commonsware&lt;/code&gt;" style="rounded=1;whiteSpace=wrap;html=1;" parent="FHVcId86m0RkL3j9cTXw-13" vertex="1">
          <mxGeometry x="174" y="380" width="160" height="40" as="geometry" />
        </mxCell>
        <mxCell id="FHVcId86m0RkL3j9cTXw-21" value="&lt;code class=&quot;code&quot;&gt;external-maven-clojars&lt;/code&gt;" style="rounded=1;whiteSpace=wrap;html=1;" parent="FHVcId86m0RkL3j9cTXw-13" vertex="1">
          <mxGeometry x="174" y="430" width="161" height="40" as="geometry" />
        </mxCell>
        <mxCell id="FHVcId86m0RkL3j9cTXw-22" value="&lt;code class=&quot;code&quot;&gt;external-nuget-org&lt;/code&gt;" style="rounded=1;whiteSpace=wrap;html=1;" parent="FHVcId86m0RkL3j9cTXw-13" vertex="1">
          <mxGeometry x="174" y="480" width="161" height="40" as="geometry" />
        </mxCell>
        <mxCell id="FHVcId86m0RkL3j9cTXw-23" value="&lt;code class=&quot;code&quot;&gt;internal-shared&lt;/code&gt;" style="rounded=1;whiteSpace=wrap;html=1;" parent="FHVcId86m0RkL3j9cTXw-13" vertex="1">
          <mxGeometry x="23" y="280" width="100" height="40" as="geometry" />
        </mxCell>
        <mxCell id="FHVcId86m0RkL3j9cTXw-24" value="" style="endArrow=classic;html=1;rounded=0;entryX=0;entryY=0.5;entryDx=0;entryDy=0;exitX=1;exitY=0.5;exitDx=0;exitDy=0;fillColor=#ffe6cc;strokeColor=#d79b00;" parent="FHVcId86m0RkL3j9cTXw-13" source="FHVcId86m0RkL3j9cTXw-23" target="FHVcId86m0RkL3j9cTXw-14" edge="1">
          <mxGeometry width="50" height="50" relative="1" as="geometry">
            <mxPoint x="-107" y="200" as="sourcePoint" />
            <mxPoint x="-57" y="150" as="targetPoint" />
          </mxGeometry>
        </mxCell>
        <mxCell id="FHVcId86m0RkL3j9cTXw-25" value="Upstream" style="edgeLabel;html=1;align=center;verticalAlign=middle;resizable=0;points=[];" parent="FHVcId86m0RkL3j9cTXw-24" vertex="1" connectable="0">
          <mxGeometry x="0.0155" relative="1" as="geometry">
            <mxPoint x="-27" y="16" as="offset" />
          </mxGeometry>
        </mxCell>
        <mxCell id="FHVcId86m0RkL3j9cTXw-26" value="" style="endArrow=classic;html=1;rounded=0;entryX=0;entryY=0.5;entryDx=0;entryDy=0;exitX=1;exitY=0.5;exitDx=0;exitDy=0;fillColor=#ffe6cc;strokeColor=#d79b00;" parent="FHVcId86m0RkL3j9cTXw-13" source="FHVcId86m0RkL3j9cTXw-23" target="FHVcId86m0RkL3j9cTXw-18" edge="1">
          <mxGeometry width="50" height="50" relative="1" as="geometry">
            <mxPoint x="13" y="150" as="sourcePoint" />
            <mxPoint x="-47" y="280" as="targetPoint" />
          </mxGeometry>
        </mxCell>
        <mxCell id="FHVcId86m0RkL3j9cTXw-27" value="" style="endArrow=classic;html=1;rounded=0;entryX=0;entryY=0.5;entryDx=0;entryDy=0;exitX=1;exitY=0.5;exitDx=0;exitDy=0;fillColor=#ffe6cc;strokeColor=#d79b00;" parent="FHVcId86m0RkL3j9cTXw-13" source="FHVcId86m0RkL3j9cTXw-23" target="FHVcId86m0RkL3j9cTXw-16" edge="1">
          <mxGeometry width="50" height="50" relative="1" as="geometry">
            <mxPoint x="-87" y="270" as="sourcePoint" />
            <mxPoint x="-37" y="220" as="targetPoint" />
          </mxGeometry>
        </mxCell>
        <mxCell id="FHVcId86m0RkL3j9cTXw-28" value="" style="endArrow=classic;html=1;rounded=0;entryX=0;entryY=0.5;entryDx=0;entryDy=0;exitX=1;exitY=0.5;exitDx=0;exitDy=0;fillColor=#ffe6cc;strokeColor=#d79b00;" parent="FHVcId86m0RkL3j9cTXw-13" source="FHVcId86m0RkL3j9cTXw-23" target="FHVcId86m0RkL3j9cTXw-17" edge="1">
          <mxGeometry width="50" height="50" relative="1" as="geometry">
            <mxPoint x="-127" y="330" as="sourcePoint" />
            <mxPoint x="-77" y="280" as="targetPoint" />
          </mxGeometry>
        </mxCell>
        <mxCell id="FHVcId86m0RkL3j9cTXw-29" value="" style="endArrow=classic;html=1;rounded=0;entryX=0;entryY=0.5;entryDx=0;entryDy=0;exitX=1;exitY=0.5;exitDx=0;exitDy=0;fillColor=#ffe6cc;strokeColor=#d79b00;" parent="FHVcId86m0RkL3j9cTXw-13" source="FHVcId86m0RkL3j9cTXw-23" target="FHVcId86m0RkL3j9cTXw-19" edge="1">
          <mxGeometry width="50" height="50" relative="1" as="geometry">
            <mxPoint x="3" y="150" as="sourcePoint" />
            <mxPoint x="13" y="350" as="targetPoint" />
          </mxGeometry>
        </mxCell>
        <mxCell id="FHVcId86m0RkL3j9cTXw-30" value="" style="endArrow=classic;html=1;rounded=0;entryX=0;entryY=0.5;entryDx=0;entryDy=0;exitX=1;exitY=0.5;exitDx=0;exitDy=0;fillColor=#ffe6cc;strokeColor=#d79b00;" parent="FHVcId86m0RkL3j9cTXw-13" source="FHVcId86m0RkL3j9cTXw-23" target="FHVcId86m0RkL3j9cTXw-20" edge="1">
          <mxGeometry width="50" height="50" relative="1" as="geometry">
            <mxPoint x="43" y="420" as="sourcePoint" />
            <mxPoint x="93" y="370" as="targetPoint" />
          </mxGeometry>
        </mxCell>
        <mxCell id="FHVcId86m0RkL3j9cTXw-31" value="" style="endArrow=classic;html=1;rounded=0;entryX=0;entryY=0.5;entryDx=0;entryDy=0;exitX=1;exitY=0.5;exitDx=0;exitDy=0;fillColor=#ffe6cc;strokeColor=#d79b00;" parent="FHVcId86m0RkL3j9cTXw-13" source="FHVcId86m0RkL3j9cTXw-23" target="FHVcId86m0RkL3j9cTXw-21" edge="1">
          <mxGeometry width="50" height="50" relative="1" as="geometry">
            <mxPoint x="-137" y="310" as="sourcePoint" />
            <mxPoint x="-87" y="260" as="targetPoint" />
          </mxGeometry>
        </mxCell>
        <mxCell id="FHVcId86m0RkL3j9cTXw-32" value="" style="endArrow=classic;html=1;rounded=0;entryX=0;entryY=0.5;entryDx=0;entryDy=0;exitX=1;exitY=0.5;exitDx=0;exitDy=0;fillColor=#ffe6cc;strokeColor=#d79b00;" parent="FHVcId86m0RkL3j9cTXw-13" source="FHVcId86m0RkL3j9cTXw-23" target="FHVcId86m0RkL3j9cTXw-22" edge="1">
          <mxGeometry width="50" height="50" relative="1" as="geometry">
            <mxPoint x="-287" y="300" as="sourcePoint" />
            <mxPoint x="-237" y="250" as="targetPoint" />
          </mxGeometry>
        </mxCell>
        <mxCell id="FHVcId86m0RkL3j9cTXw-33" value="" style="curved=1;endArrow=classic;html=1;rounded=0;exitX=0;exitY=1;exitDx=0;exitDy=0;entryX=0.5;entryY=1;entryDx=0;entryDy=0;dashed=1;" parent="FHVcId86m0RkL3j9cTXw-13" source="FHVcId86m0RkL3j9cTXw-22" target="FHVcId86m0RkL3j9cTXw-23" edge="1">
          <mxGeometry width="50" height="50" relative="1" as="geometry">
            <mxPoint x="493" y="530" as="sourcePoint" />
            <mxPoint x="333" y="530" as="targetPoint" />
            <Array as="points">
              <mxPoint x="73" y="490" />
            </Array>
          </mxGeometry>
        </mxCell>
        <mxCell id="FHVcId86m0RkL3j9cTXw-34" value="Packages" style="edgeLabel;html=1;align=center;verticalAlign=middle;resizable=0;points=[];" parent="FHVcId86m0RkL3j9cTXw-33" vertex="1" connectable="0">
          <mxGeometry x="-0.2462" y="-25" relative="1" as="geometry">
            <mxPoint x="-1" as="offset" />
          </mxGeometry>
        </mxCell>
        <mxCell id="FHVcId86m0RkL3j9cTXw-35" value="prd (AWS Account)" style="points=[[0,0],[0.25,0],[0.5,0],[0.75,0],[1,0],[1,0.25],[1,0.5],[1,0.75],[1,1],[0.75,1],[0.5,1],[0.25,1],[0,1],[0,0.75],[0,0.5],[0,0.25]];outlineConnect=0;gradientColor=none;html=1;whiteSpace=wrap;fontSize=12;fontStyle=0;container=1;pointerEvents=0;collapsible=0;recursiveResize=0;shape=mxgraph.aws4.group;grIcon=mxgraph.aws4.group_account;strokeColor=#CD2264;fillColor=none;verticalAlign=top;align=left;spacingLeft=30;fontColor=#CD2264;dashed=0;" parent="1" vertex="1">
          <mxGeometry x="-660" y="80" width="150" height="140" as="geometry" />
        </mxCell>
        <mxCell id="FHVcId86m0RkL3j9cTXw-36" value="&lt;code class=&quot;code&quot;&gt;prd-default&lt;br&gt;(repo)&lt;/code&gt;" style="rounded=1;whiteSpace=wrap;html=1;" parent="FHVcId86m0RkL3j9cTXw-35" vertex="1">
          <mxGeometry x="25" y="56.879999999999995" width="100" height="40" as="geometry" />
        </mxCell>
        <mxCell id="FHVcId86m0RkL3j9cTXw-37" value="" style="endArrow=classic;html=1;rounded=0;exitX=1;exitY=0.5;exitDx=0;exitDy=0;entryX=0;entryY=0.5;entryDx=0;entryDy=0;fillColor=#ffe6cc;strokeColor=#d79b00;" parent="1" source="FHVcId86m0RkL3j9cTXw-14" target="FHVcId86m0RkL3j9cTXw-1" edge="1">
          <mxGeometry width="50" height="50" relative="1" as="geometry">
            <mxPoint x="-90" y="230" as="sourcePoint" />
            <mxPoint x="-40" y="180" as="targetPoint" />
          </mxGeometry>
        </mxCell>
        <mxCell id="FHVcId86m0RkL3j9cTXw-38" value="External Connection" style="edgeLabel;html=1;align=center;verticalAlign=middle;resizable=0;points=[];" parent="FHVcId86m0RkL3j9cTXw-37" vertex="1" connectable="0">
          <mxGeometry x="-0.0253" relative="1" as="geometry">
            <mxPoint x="14" y="-10" as="offset" />
          </mxGeometry>
        </mxCell>
        <mxCell id="FHVcId86m0RkL3j9cTXw-39" value="" style="endArrow=classic;html=1;rounded=0;exitX=1;exitY=0.5;exitDx=0;exitDy=0;entryX=0;entryY=0.5;entryDx=0;entryDy=0;fillColor=#ffe6cc;strokeColor=#d79b00;" parent="1" source="FHVcId86m0RkL3j9cTXw-18" target="FHVcId86m0RkL3j9cTXw-2" edge="1">
          <mxGeometry width="50" height="50" relative="1" as="geometry">
            <mxPoint x="-92" y="240" as="sourcePoint" />
            <mxPoint x="70" y="240" as="targetPoint" />
          </mxGeometry>
        </mxCell>
        <mxCell id="FHVcId86m0RkL3j9cTXw-40" value="External Connection" style="edgeLabel;html=1;align=center;verticalAlign=middle;resizable=0;points=[];" parent="FHVcId86m0RkL3j9cTXw-39" vertex="1" connectable="0">
          <mxGeometry x="-0.0253" relative="1" as="geometry">
            <mxPoint x="14" y="-10" as="offset" />
          </mxGeometry>
        </mxCell>
        <mxCell id="FHVcId86m0RkL3j9cTXw-41" value="" style="endArrow=classic;html=1;rounded=0;exitX=1;exitY=0.5;exitDx=0;exitDy=0;entryX=0;entryY=0.5;entryDx=0;entryDy=0;fillColor=#ffe6cc;strokeColor=#d79b00;" parent="1" source="FHVcId86m0RkL3j9cTXw-16" target="FHVcId86m0RkL3j9cTXw-3" edge="1">
          <mxGeometry width="50" height="50" relative="1" as="geometry">
            <mxPoint x="-92" y="290" as="sourcePoint" />
            <mxPoint x="70" y="290" as="targetPoint" />
          </mxGeometry>
        </mxCell>
        <mxCell id="FHVcId86m0RkL3j9cTXw-42" value="External Connection" style="edgeLabel;html=1;align=center;verticalAlign=middle;resizable=0;points=[];" parent="FHVcId86m0RkL3j9cTXw-41" vertex="1" connectable="0">
          <mxGeometry x="-0.0253" relative="1" as="geometry">
            <mxPoint x="14" y="-10" as="offset" />
          </mxGeometry>
        </mxCell>
        <mxCell id="FHVcId86m0RkL3j9cTXw-43" value="" style="endArrow=classic;html=1;rounded=0;exitX=1;exitY=0.5;exitDx=0;exitDy=0;entryX=0;entryY=0.5;entryDx=0;entryDy=0;fillColor=#ffe6cc;strokeColor=#d79b00;" parent="1" source="FHVcId86m0RkL3j9cTXw-17" target="FHVcId86m0RkL3j9cTXw-4" edge="1">
          <mxGeometry width="50" height="50" relative="1" as="geometry">
            <mxPoint x="-82" y="300" as="sourcePoint" />
            <mxPoint x="80" y="300" as="targetPoint" />
          </mxGeometry>
        </mxCell>
        <mxCell id="FHVcId86m0RkL3j9cTXw-44" value="External Connection" style="edgeLabel;html=1;align=center;verticalAlign=middle;resizable=0;points=[];" parent="FHVcId86m0RkL3j9cTXw-43" vertex="1" connectable="0">
          <mxGeometry x="-0.0253" relative="1" as="geometry">
            <mxPoint x="14" y="-10" as="offset" />
          </mxGeometry>
        </mxCell>
        <mxCell id="FHVcId86m0RkL3j9cTXw-45" value="" style="endArrow=classic;html=1;rounded=0;exitX=1;exitY=0.5;exitDx=0;exitDy=0;entryX=0;entryY=0.5;entryDx=0;entryDy=0;fillColor=#ffe6cc;strokeColor=#d79b00;" parent="1" source="FHVcId86m0RkL3j9cTXw-19" target="FHVcId86m0RkL3j9cTXw-5" edge="1">
          <mxGeometry width="50" height="50" relative="1" as="geometry">
            <mxPoint x="-72" y="310" as="sourcePoint" />
            <mxPoint x="90" y="310" as="targetPoint" />
          </mxGeometry>
        </mxCell>
        <mxCell id="FHVcId86m0RkL3j9cTXw-46" value="External Connection" style="edgeLabel;html=1;align=center;verticalAlign=middle;resizable=0;points=[];" parent="FHVcId86m0RkL3j9cTXw-45" vertex="1" connectable="0">
          <mxGeometry x="-0.0253" relative="1" as="geometry">
            <mxPoint x="14" y="-10" as="offset" />
          </mxGeometry>
        </mxCell>
        <mxCell id="FHVcId86m0RkL3j9cTXw-47" value="" style="endArrow=classic;html=1;rounded=0;exitX=1;exitY=0.5;exitDx=0;exitDy=0;fillColor=#ffe6cc;strokeColor=#d79b00;" parent="1" source="FHVcId86m0RkL3j9cTXw-20" target="FHVcId86m0RkL3j9cTXw-6" edge="1">
          <mxGeometry width="50" height="50" relative="1" as="geometry">
            <mxPoint x="-62" y="320" as="sourcePoint" />
            <mxPoint x="100" y="320" as="targetPoint" />
          </mxGeometry>
        </mxCell>
        <mxCell id="FHVcId86m0RkL3j9cTXw-48" value="External Connection" style="edgeLabel;html=1;align=center;verticalAlign=middle;resizable=0;points=[];" parent="FHVcId86m0RkL3j9cTXw-47" vertex="1" connectable="0">
          <mxGeometry x="-0.0253" relative="1" as="geometry">
            <mxPoint x="14" y="-10" as="offset" />
          </mxGeometry>
        </mxCell>
        <mxCell id="FHVcId86m0RkL3j9cTXw-49" value="" style="endArrow=classic;html=1;rounded=0;exitX=1;exitY=0.5;exitDx=0;exitDy=0;entryX=0;entryY=0.5;entryDx=0;entryDy=0;fillColor=#ffe6cc;strokeColor=#d79b00;" parent="1" source="FHVcId86m0RkL3j9cTXw-21" target="FHVcId86m0RkL3j9cTXw-7" edge="1">
          <mxGeometry width="50" height="50" relative="1" as="geometry">
            <mxPoint x="-52" y="330" as="sourcePoint" />
            <mxPoint x="110" y="330" as="targetPoint" />
          </mxGeometry>
        </mxCell>
        <mxCell id="FHVcId86m0RkL3j9cTXw-50" value="External Connection" style="edgeLabel;html=1;align=center;verticalAlign=middle;resizable=0;points=[];" parent="FHVcId86m0RkL3j9cTXw-49" vertex="1" connectable="0">
          <mxGeometry x="-0.0253" relative="1" as="geometry">
            <mxPoint x="14" y="-10" as="offset" />
          </mxGeometry>
        </mxCell>
        <mxCell id="FHVcId86m0RkL3j9cTXw-51" value="" style="endArrow=classic;html=1;rounded=0;exitX=1;exitY=0.5;exitDx=0;exitDy=0;entryX=0;entryY=0.5;entryDx=0;entryDy=0;fillColor=#ffe6cc;strokeColor=#d79b00;" parent="1" source="FHVcId86m0RkL3j9cTXw-22" target="FHVcId86m0RkL3j9cTXw-8" edge="1">
          <mxGeometry width="50" height="50" relative="1" as="geometry">
            <mxPoint x="-42" y="340" as="sourcePoint" />
            <mxPoint x="120" y="340" as="targetPoint" />
          </mxGeometry>
        </mxCell>
        <mxCell id="FHVcId86m0RkL3j9cTXw-52" value="External Connection" style="edgeLabel;html=1;align=center;verticalAlign=middle;resizable=0;points=[];" parent="FHVcId86m0RkL3j9cTXw-51" vertex="1" connectable="0">
          <mxGeometry x="-0.0253" relative="1" as="geometry">
            <mxPoint x="14" y="-10" as="offset" />
          </mxGeometry>
        </mxCell>
        <mxCell id="FHVcId86m0RkL3j9cTXw-53" value="Package Manager" style="rounded=0;whiteSpace=wrap;html=1;" parent="1" vertex="1">
          <mxGeometry x="-850" y="136.88" width="120" height="40" as="geometry" />
        </mxCell>
        <mxCell id="FHVcId86m0RkL3j9cTXw-54" value="" style="endArrow=classic;html=1;rounded=0;entryX=0;entryY=0.25;entryDx=0;entryDy=0;exitX=1;exitY=0.25;exitDx=0;exitDy=0;" parent="1" source="FHVcId86m0RkL3j9cTXw-53" target="FHVcId86m0RkL3j9cTXw-36" edge="1">
          <mxGeometry width="50" height="50" relative="1" as="geometry">
            <mxPoint x="-690" y="530" as="sourcePoint" />
            <mxPoint x="-640" y="480" as="targetPoint" />
          </mxGeometry>
        </mxCell>
        <mxCell id="FHVcId86m0RkL3j9cTXw-55" value="" style="endArrow=classic;html=1;rounded=0;entryX=1;entryY=0.75;entryDx=0;entryDy=0;exitX=0;exitY=0.75;exitDx=0;exitDy=0;" parent="1" source="FHVcId86m0RkL3j9cTXw-36" target="FHVcId86m0RkL3j9cTXw-53" edge="1">
          <mxGeometry width="50" height="50" relative="1" as="geometry">
            <mxPoint x="-770" y="440" as="sourcePoint" />
            <mxPoint x="-720" y="390" as="targetPoint" />
          </mxGeometry>
        </mxCell>
        <mxCell id="FHVcId86m0RkL3j9cTXw-56" value="" style="curved=1;endArrow=classic;html=1;rounded=0;exitX=0;exitY=1;exitDx=0;exitDy=0;entryX=0.5;entryY=1;entryDx=0;entryDy=0;dashed=1;" parent="1" source="FHVcId86m0RkL3j9cTXw-8" target="FHVcId86m0RkL3j9cTXw-22" edge="1">
          <mxGeometry width="50" height="50" relative="1" as="geometry">
            <mxPoint x="-310" y="930" as="sourcePoint" />
            <mxPoint x="-260" y="880" as="targetPoint" />
            <Array as="points">
              <mxPoint x="-20" y="680" />
            </Array>
          </mxGeometry>
        </mxCell>
        <mxCell id="FHVcId86m0RkL3j9cTXw-57" value="Packages" style="edgeLabel;html=1;align=center;verticalAlign=middle;resizable=0;points=[];" parent="FHVcId86m0RkL3j9cTXw-56" vertex="1" connectable="0">
          <mxGeometry x="-0.2462" y="-25" relative="1" as="geometry">
            <mxPoint x="-1" as="offset" />
          </mxGeometry>
        </mxCell>
        <mxCell id="FHVcId86m0RkL3j9cTXw-58" value="" style="endArrow=classic;html=1;rounded=0;exitX=1;exitY=0.5;exitDx=0;exitDy=0;fillColor=#ffe6cc;strokeColor=#d79b00;entryX=0;entryY=0.5;entryDx=0;entryDy=0;" parent="1" source="FHVcId86m0RkL3j9cTXw-36" target="FHVcId86m0RkL3j9cTXw-23" edge="1">
          <mxGeometry width="50" height="50" relative="1" as="geometry">
            <mxPoint x="-540" y="490" as="sourcePoint" />
            <mxPoint x="-580" y="380" as="targetPoint" />
          </mxGeometry>
        </mxCell>
        <mxCell id="FHVcId86m0RkL3j9cTXw-59" value="Upstream" style="edgeLabel;html=1;align=center;verticalAlign=middle;resizable=0;points=[];" parent="FHVcId86m0RkL3j9cTXw-58" vertex="1" connectable="0">
          <mxGeometry x="0.0473" relative="1" as="geometry">
            <mxPoint x="-12" as="offset" />
          </mxGeometry>
        </mxCell>
        <mxCell id="FHVcId86m0RkL3j9cTXw-70" value="" style="curved=1;endArrow=classic;html=1;rounded=0;exitX=0.5;exitY=0;exitDx=0;exitDy=0;entryX=1;entryY=0.5;entryDx=0;entryDy=0;dashed=1;" parent="1" source="FHVcId86m0RkL3j9cTXw-23" target="FHVcId86m0RkL3j9cTXw-36" edge="1">
          <mxGeometry width="50" height="50" relative="1" as="geometry">
            <mxPoint x="-372" y="400" as="sourcePoint" />
            <mxPoint x="-585" y="177" as="targetPoint" />
            <Array as="points">
              <mxPoint x="-372" y="157" />
            </Array>
          </mxGeometry>
        </mxCell>
        <mxCell id="FHVcId86m0RkL3j9cTXw-71" value="Packages" style="edgeLabel;html=1;align=center;verticalAlign=middle;resizable=0;points=[];" parent="FHVcId86m0RkL3j9cTXw-70" vertex="1" connectable="0">
          <mxGeometry x="-0.2462" y="-25" relative="1" as="geometry">
            <mxPoint x="-1" as="offset" />
          </mxGeometry>
        </mxCell>
        <mxCell id="FHVcId86m0RkL3j9cTXw-68" value="stg (AWS Account)" style="points=[[0,0],[0.25,0],[0.5,0],[0.75,0],[1,0],[1,0.25],[1,0.5],[1,0.75],[1,1],[0.75,1],[0.5,1],[0.25,1],[0,1],[0,0.75],[0,0.5],[0,0.25]];outlineConnect=0;gradientColor=none;html=1;whiteSpace=wrap;fontSize=12;fontStyle=0;container=1;pointerEvents=0;collapsible=0;recursiveResize=0;shape=mxgraph.aws4.group;grIcon=mxgraph.aws4.group_account;strokeColor=#CD2264;fillColor=none;verticalAlign=top;align=left;spacingLeft=30;fontColor=#CD2264;dashed=0;" parent="1" vertex="1">
          <mxGeometry x="-660" y="270" width="150" height="140" as="geometry" />
        </mxCell>
        <mxCell id="FHVcId86m0RkL3j9cTXw-69" value="&lt;code class=&quot;code&quot;&gt;stg-default&lt;br&gt;(repo)&lt;/code&gt;" style="rounded=1;whiteSpace=wrap;html=1;" parent="FHVcId86m0RkL3j9cTXw-68" vertex="1">
          <mxGeometry x="25" y="56.879999999999995" width="100" height="40" as="geometry" />
        </mxCell>
        <mxCell id="FHVcId86m0RkL3j9cTXw-72" value="dev (AWS Account)" style="points=[[0,0],[0.25,0],[0.5,0],[0.75,0],[1,0],[1,0.25],[1,0.5],[1,0.75],[1,1],[0.75,1],[0.5,1],[0.25,1],[0,1],[0,0.75],[0,0.5],[0,0.25]];outlineConnect=0;gradientColor=none;html=1;whiteSpace=wrap;fontSize=12;fontStyle=0;container=1;pointerEvents=0;collapsible=0;recursiveResize=0;shape=mxgraph.aws4.group;grIcon=mxgraph.aws4.group_account;strokeColor=#CD2264;fillColor=none;verticalAlign=top;align=left;spacingLeft=30;fontColor=#CD2264;dashed=0;" parent="1" vertex="1">
          <mxGeometry x="-660" y="470" width="150" height="140" as="geometry" />
        </mxCell>
        <mxCell id="FHVcId86m0RkL3j9cTXw-73" value="&lt;code class=&quot;code&quot;&gt;dev-default&lt;br&gt;(repo)&lt;/code&gt;" style="rounded=1;whiteSpace=wrap;html=1;" parent="FHVcId86m0RkL3j9cTXw-72" vertex="1">
          <mxGeometry x="25" y="56.879999999999995" width="100" height="40" as="geometry" />
        </mxCell>
        <mxCell id="FHVcId86m0RkL3j9cTXw-74" value="" style="endArrow=classic;html=1;rounded=0;exitX=0.75;exitY=0;exitDx=0;exitDy=0;fillColor=#ffe6cc;strokeColor=#d79b00;entryX=0.75;entryY=1;entryDx=0;entryDy=0;" parent="1" source="FHVcId86m0RkL3j9cTXw-69" target="FHVcId86m0RkL3j9cTXw-36" edge="1">
          <mxGeometry width="50" height="50" relative="1" as="geometry">
            <mxPoint x="-525" y="167" as="sourcePoint" />
            <mxPoint x="-387" y="390" as="targetPoint" />
          </mxGeometry>
        </mxCell>
        <mxCell id="FHVcId86m0RkL3j9cTXw-75" value="Upstream" style="edgeLabel;html=1;align=center;verticalAlign=middle;resizable=0;points=[];" parent="FHVcId86m0RkL3j9cTXw-74" vertex="1" connectable="0">
          <mxGeometry x="0.0473" relative="1" as="geometry">
            <mxPoint x="-12" as="offset" />
          </mxGeometry>
        </mxCell>
        <mxCell id="FHVcId86m0RkL3j9cTXw-76" value="" style="endArrow=classic;html=1;rounded=0;exitX=0.75;exitY=0;exitDx=0;exitDy=0;fillColor=#ffe6cc;strokeColor=#d79b00;entryX=0.75;entryY=1;entryDx=0;entryDy=0;" parent="1" source="FHVcId86m0RkL3j9cTXw-73" edge="1">
          <mxGeometry width="50" height="50" relative="1" as="geometry">
            <mxPoint x="-560" y="520" as="sourcePoint" />
            <mxPoint x="-560" y="370" as="targetPoint" />
          </mxGeometry>
        </mxCell>
        <mxCell id="FHVcId86m0RkL3j9cTXw-77" value="Upstream" style="edgeLabel;html=1;align=center;verticalAlign=middle;resizable=0;points=[];" parent="FHVcId86m0RkL3j9cTXw-76" vertex="1" connectable="0">
          <mxGeometry x="0.0473" relative="1" as="geometry">
            <mxPoint x="-12" as="offset" />
          </mxGeometry>
        </mxCell>
        <mxCell id="FHVcId86m0RkL3j9cTXw-79" value="Package Manager" style="rounded=0;whiteSpace=wrap;html=1;" parent="1" vertex="1">
          <mxGeometry x="-850" y="330" width="120" height="40" as="geometry" />
        </mxCell>
        <mxCell id="FHVcId86m0RkL3j9cTXw-80" value="" style="endArrow=classic;html=1;rounded=0;entryX=0;entryY=0.25;entryDx=0;entryDy=0;exitX=1;exitY=0.25;exitDx=0;exitDy=0;" parent="1" source="FHVcId86m0RkL3j9cTXw-79" edge="1">
          <mxGeometry width="50" height="50" relative="1" as="geometry">
            <mxPoint x="-690" y="723.12" as="sourcePoint" />
            <mxPoint x="-635" y="340.12" as="targetPoint" />
          </mxGeometry>
        </mxCell>
        <mxCell id="FHVcId86m0RkL3j9cTXw-81" value="" style="endArrow=classic;html=1;rounded=0;entryX=1;entryY=0.75;entryDx=0;entryDy=0;exitX=0;exitY=0.75;exitDx=0;exitDy=0;" parent="1" target="FHVcId86m0RkL3j9cTXw-79" edge="1">
          <mxGeometry width="50" height="50" relative="1" as="geometry">
            <mxPoint x="-635" y="360.12" as="sourcePoint" />
            <mxPoint x="-720" y="583.12" as="targetPoint" />
          </mxGeometry>
        </mxCell>
        <mxCell id="FHVcId86m0RkL3j9cTXw-85" value="Package Manager" style="rounded=0;whiteSpace=wrap;html=1;" parent="1" vertex="1">
          <mxGeometry x="-850" y="530" width="120" height="40" as="geometry" />
        </mxCell>
        <mxCell id="FHVcId86m0RkL3j9cTXw-86" value="" style="endArrow=classic;html=1;rounded=0;entryX=0;entryY=0.25;entryDx=0;entryDy=0;exitX=1;exitY=0.25;exitDx=0;exitDy=0;" parent="1" source="FHVcId86m0RkL3j9cTXw-85" edge="1">
          <mxGeometry width="50" height="50" relative="1" as="geometry">
            <mxPoint x="-690" y="923.12" as="sourcePoint" />
            <mxPoint x="-635" y="540.12" as="targetPoint" />
          </mxGeometry>
        </mxCell>
        <mxCell id="FHVcId86m0RkL3j9cTXw-87" value="" style="endArrow=classic;html=1;rounded=0;entryX=1;entryY=0.75;entryDx=0;entryDy=0;exitX=0;exitY=0.75;exitDx=0;exitDy=0;" parent="1" target="FHVcId86m0RkL3j9cTXw-85" edge="1">
          <mxGeometry width="50" height="50" relative="1" as="geometry">
            <mxPoint x="-635" y="560.12" as="sourcePoint" />
            <mxPoint x="-720" y="783.12" as="targetPoint" />
          </mxGeometry>
        </mxCell>
      </root>
    </mxGraphModel>
  </diagram>
</mxfile>
